<svg width="9" height="19" viewBox="0 0 9 19" fill="none" xmlns="http://www.w3.org/2000/svg">
<path d="M4.49016 0.624589C4.3224 0.627211 4.16254 0.696283 4.04566 0.816644C3.92878 0.937005 3.86442 1.09882 3.86672 1.26658V16.2043L1.78117 14.1188C1.72215 14.0581 1.65157 14.0099 1.5736 13.977C1.49562 13.944 1.41184 13.9271 1.3272 13.9271C1.20121 13.9271 1.07809 13.9647 0.973585 14.0351C0.869078 14.1054 0.787933 14.2054 0.740524 14.3221C0.693115 14.4388 0.681595 14.5671 0.707437 14.6904C0.73328 14.8137 0.795311 14.9265 0.885599 15.0144L3.9966 18.1254C4.05555 18.2027 4.13151 18.2654 4.2186 18.3087C4.30569 18.352 4.40158 18.3746 4.49882 18.3748C4.59607 18.3751 4.69206 18.3529 4.77937 18.3101C4.86667 18.2673 4.94294 18.2049 5.00227 18.1278C5.00309 18.1266 5.00392 18.1254 5.00474 18.1241L8.1145 15.0144C8.17529 14.956 8.22382 14.8861 8.25725 14.8088C8.29068 14.7314 8.30834 14.6482 8.3092 14.5639C8.31006 14.4797 8.29409 14.3961 8.26224 14.3181C8.23039 14.24 8.1833 14.1692 8.12371 14.1096C8.06413 14.05 7.99326 14.0029 7.91524 13.9711C7.83723 13.9392 7.75365 13.9232 7.66939 13.9241C7.58513 13.925 7.50189 13.9426 7.42454 13.9761C7.34719 14.0095 7.27729 14.058 7.21893 14.1188L5.13339 16.2043V1.26658C5.13455 1.18185 5.11869 1.09774 5.08676 1.01925C5.05483 0.940752 5.00747 0.869462 4.9475 0.809598C4.88752 0.749735 4.81614 0.702516 4.73758 0.670737C4.65902 0.638958 4.57489 0.623266 4.49016 0.624589Z" fill="white"/>
</svg>
