<svg width="26" height="26" viewBox="0 0 26 26" fill="none" xmlns="http://www.w3.org/2000/svg">
    <circle cx="12.5" cy="12.5" r="11.5" fill="white" />
    <path
        d="M13 0C5.82075 0 0 5.82075 0 13C0 20.1793 5.82075 26 13 26C20.1793 26 26 20.1793 26 13C26 5.82075 20.1793 0 13 0ZM19.1826 13.7659L14.8493 18.0993C14.638 18.3105 14.3607 18.4167 14.0833 18.4167C13.806 18.4167 13.5287 18.3105 13.3174 18.0993C12.8938 17.6757 12.8938 16.991 13.3174 16.5674L15.8015 14.0833H7.58333C6.98533 14.0833 6.5 13.5991 6.5 13C6.5 12.4009 6.98533 11.9167 7.58333 11.9167H15.8015L13.3174 9.43258C12.8938 9.009 12.8938 8.32433 13.3174 7.90075C13.741 7.47717 14.4257 7.47717 14.8493 7.90075L19.1826 12.2341C19.6062 12.6577 19.6062 13.3423 19.1826 13.7659Z"
        fill="#f78406" />
</svg>