<svg width="1230" height="1552" viewBox="0 0 1230 1552" fill="none" xmlns="http://www.w3.org/2000/svg">
<path d="M152.735 727.334L152.729 727.33L152.722 727.327C143.874 722.444 139 713.924 139 703.833V699.718V566.162V485.774V432.605V415.882H139.316V414.882V299.048V165.491V163.909C139.316 154.145 144.499 145.296 153.052 140.408L153.082 140.391L153.11 140.372L154.033 139.756L269.501 72.9939L384.97 6.23063L386.208 5.61115L386.233 5.59874L386.257 5.58497C394.81 0.696937 404.874 0.696937 413.426 5.58497L413.451 5.59874L413.475 5.61115L414.713 6.22997L530.497 73.6254L530.499 73.6268L645.995 140.405L646.021 140.42L646.048 140.434L647.295 141.058C656.132 145.942 661 154.458 661 164.542V165.808V299.365V432.921V434.187C661 443.942 655.827 452.784 647.288 457.675L646.048 458.295L646.021 458.309L645.995 458.324L183.403 725.425L183.382 725.437L179.922 727.324L179.913 727.329L179.905 727.334C171.352 732.222 161.288 732.222 152.735 727.334Z" stroke="#165288" stroke-opacity="0.06" stroke-width="2"/>
<path d="M14.7353 1546.41L14.7288 1546.41L14.7223 1546.41C5.87433 1541.53 1 1533 1 1522.91V1518.8V1385.24V1304.86V1251.69V1234.96H1.31642V1233.96V1118.13V984.572V982.99C1.31642 973.226 6.49886 964.377 15.0518 959.489L15.0817 959.472L15.1103 959.453L16.0331 958.837L131.501 892.075L246.97 825.312L248.208 824.692L248.233 824.68L248.257 824.666C256.81 819.778 266.874 819.778 275.426 824.666L275.451 824.68L275.475 824.692L276.713 825.311L392.497 892.706L392.499 892.708L507.995 959.486L508.021 959.501L508.048 959.515L509.295 960.139C518.132 965.023 523 973.539 523 983.623V984.889V1118.45V1252V1253.27C523 1263.02 517.827 1271.86 509.288 1276.76L508.048 1277.38L508.021 1277.39L507.995 1277.4L45.4027 1544.51L45.3816 1544.52L41.9221 1546.41L41.9134 1546.41L41.9048 1546.41C33.3523 1551.3 23.2878 1551.3 14.7353 1546.41Z" stroke="#165288" stroke-opacity="0.06" stroke-width="2"/>
<path d="M720.735 1247.41L720.729 1247.41L720.722 1247.41C711.874 1242.53 707 1234 707 1223.91V1219.8V1086.24V1005.86V952.686V935.963H707.316V934.963V819.129V685.572V683.99C707.316 674.226 712.499 665.377 721.052 660.489L721.082 660.472L721.11 660.453L722.033 659.837L837.501 593.075L952.97 526.312L954.208 525.692L954.233 525.68L954.257 525.666C962.81 520.778 972.874 520.778 981.426 525.666L981.451 525.68L981.475 525.692L982.713 526.311L1098.5 593.706L1098.5 593.708L1213.99 660.486L1214.02 660.501L1214.05 660.515L1215.3 661.139C1224.13 666.023 1229 674.539 1229 684.623V685.889V819.446V953.002V954.268C1229 964.023 1223.83 972.865 1215.29 977.756L1214.05 978.376L1214.02 978.39L1214 978.405L751.403 1245.51L751.382 1245.52L747.922 1247.41L747.913 1247.41L747.905 1247.41C739.352 1252.3 729.288 1252.3 720.735 1247.41Z" stroke="#165288" stroke-opacity="0.06" stroke-width="2"/>
</svg>
