<svg width="258" height="69" viewBox="0 0 258 69" fill="none" xmlns="http://www.w3.org/2000/svg">
    <path
        d="M67.6963 68.4652C67.6963 68.2657 67.6345 68.1407 67.559 68.1874C67.4835 68.2342 67.3275 68.0466 67.2124 67.7707C67.0909 67.4796 66.9036 67.269 66.7662 67.269C66.579 67.269 66.5639 67.2273 66.6941 67.0702C66.8207 66.9175 66.8165 66.8571 66.6761 66.8098C66.5322 66.7613 66.5385 66.693 66.7055 66.4895C66.8673 66.2924 66.8757 66.2167 66.7409 66.1712C66.6436 66.1385 66.564 66.0494 66.564 65.9734C66.564 65.8973 66.627 65.874 66.7039 65.9217C66.7841 65.9713 66.8079 65.9144 66.7595 65.7883C66.7132 65.6674 66.748 65.5684 66.8369 65.5684C66.9547 65.5684 66.9575 65.4915 66.847 65.285C66.7254 65.0573 66.7394 65.0015 66.9184 65.0015C67.0985 65.0015 67.1073 64.9651 66.964 64.8116C66.7808 64.6152 66.4249 64.7908 66.4714 65.0547C66.4834 65.1229 66.4186 65.2062 66.3274 65.2399C66.2184 65.2802 66.1897 65.1938 66.2436 64.9875C66.2886 64.8149 66.2677 64.7077 66.1971 64.7491C66.1264 64.7905 65.9412 64.7774 65.7855 64.7201C65.5611 64.6374 65.627 64.5945 66.104 64.5128C66.4791 64.4486 66.7055 64.3344 66.7055 64.2096C66.7055 64.0996 66.8293 64.0095 66.9806 64.0095C67.1318 64.0095 67.3427 63.885 67.4492 63.7328C67.6401 63.4599 68.361 63.0874 68.5947 63.141C68.6607 63.1561 69.0747 63.0776 69.5147 62.9664C69.9547 62.8552 70.7128 62.7193 71.1995 62.6644C71.6861 62.6095 72.1198 62.507 72.1632 62.4367C72.2065 62.3665 72.3816 62.3075 72.5521 62.3058C72.7227 62.304 73.2444 62.1142 73.7114 61.8838C74.1785 61.6535 74.6683 61.4636 74.8 61.4619C74.9316 61.4601 75.0787 61.3949 75.1268 61.317C75.1749 61.239 75.1424 61.1753 75.0545 61.1753C74.8584 61.1753 74.9291 60.5415 75.1268 60.5277C75.2046 60.5223 75.5475 60.4378 75.8888 60.34C76.2301 60.2421 76.6648 60.2011 76.8547 60.2489C77.0447 60.2966 77.4024 60.2732 77.6495 60.1969C77.8967 60.1205 78.4544 59.9884 78.8888 59.9033C80.0808 59.6698 80.7174 59.4746 80.7174 59.3428C80.7174 59.2062 73.4568 59.3015 71.6592 59.4617C70.7121 59.5461 70.3508 59.5231 69.9608 59.3533C69.6883 59.2347 69.4336 59.1284 69.3947 59.1171C69.3557 59.1059 69.1378 59.0197 68.9103 58.9256C68.6828 58.8315 68.3962 58.7937 68.2734 58.8416C68.1506 58.8895 66.2668 58.9516 64.0871 58.9795C61.9075 59.0075 59.8376 59.0939 59.4873 59.1715C59.137 59.2491 58.0872 59.3867 57.1545 59.4772C56.2217 59.5677 55.3367 59.707 55.1877 59.7868C55.0388 59.8666 54.6059 59.902 54.2257 59.8654C53.8455 59.8288 53.5001 59.8545 53.4581 59.9225C53.4161 59.9905 53.3225 60.0095 53.25 59.9646C53.1776 59.9198 53.1183 59.9506 53.1183 60.0332C53.1183 60.1157 53.0705 60.1706 53.0121 60.1551C52.7767 60.0928 51.5614 60.3506 51.5614 60.4629C51.5614 60.6012 50.4923 60.8312 50.088 60.7798C49.9393 60.7609 49.698 60.874 49.5517 61.0312C49.4055 61.1884 49.1769 61.3245 49.0437 61.3337C48.9105 61.3429 48.4194 61.3642 47.9523 61.381C47.4852 61.3978 46.8483 61.4852 46.537 61.5752C46.2256 61.6652 45.7302 61.7746 45.4361 61.8185C45.1421 61.8623 44.936 61.9541 44.9782 62.0225C45.11 62.2359 44.7954 62.2918 42.3364 62.4921C42.2058 62.5027 42.1102 62.5718 42.1241 62.6456C42.138 62.7195 42.022 62.8174 41.8663 62.8633C41.7107 62.9092 41.4225 63.0562 41.2259 63.1901C40.9688 63.3652 40.4328 63.459 39.3152 63.5246C38.4609 63.5748 37.6146 63.6091 37.4347 63.601C37.2548 63.5928 36.912 63.6874 36.6729 63.8112C36.426 63.939 36.2005 63.9801 36.1508 63.9063C36.029 63.725 35.5307 63.5509 35.6399 63.7277C35.7549 63.9141 35.6172 63.9046 35.2403 63.7C34.4797 63.2872 30.879 63.601 30.5034 64.1128C30.3871 64.2713 30.3743 64.3782 30.468 64.4094C30.5485 64.4363 30.6144 64.5148 30.6144 64.5838C30.6144 64.6528 30.5253 64.675 30.4164 64.6331C30.3075 64.5913 30.1764 64.6252 30.125 64.7084C29.9878 64.9308 30.836 64.8985 31.2937 64.664C31.5039 64.5563 31.9625 64.4212 32.3128 64.3639C32.6631 64.3065 33.0612 64.2388 33.1974 64.2135C33.3336 64.1882 33.4451 64.2511 33.4451 64.3532C33.4451 64.4845 33.6211 64.525 34.0466 64.4916C34.5116 64.4552 34.5912 64.4775 34.3975 64.59C34.2596 64.67 34.1787 64.7872 34.2176 64.8503C34.3016 64.9864 33.5103 65.1232 31.9784 65.2376C31.1182 65.3018 30.8374 65.2764 30.7421 65.1257C30.6526 64.9842 30.6182 64.9793 30.6166 65.1078C30.6134 65.3687 29.7627 65.3266 29.4579 65.0504C29.3155 64.9214 29.1991 64.8762 29.1991 64.95C29.1991 65.0313 28.7397 65.0457 28.0314 64.9866C27.3892 64.933 26.3861 64.8541 25.8023 64.8111C25.2184 64.7682 24.5316 64.6589 24.2759 64.5683C24.0202 64.4777 23.6524 64.4339 23.4587 64.471C23.2649 64.508 23.0662 64.4733 23.0171 64.3938C22.9622 64.3049 22.9992 64.2933 23.1131 64.3638C23.2284 64.4351 23.264 64.4228 23.2075 64.3312C23.1009 64.1585 22.4259 64.0021 21.627 63.965C21.1558 63.9431 21.0583 63.8877 21.0455 63.6342C21.0318 63.362 21.1294 63.3182 21.9655 63.2211C22.4799 63.1614 23.06 63.1264 23.2547 63.1433L23.6085 63.1739L23.233 62.9695C22.5817 62.6151 21.9467 62.4655 20.707 62.3746C20.0454 62.3261 19.09 62.1822 18.584 62.055C17.4203 61.7622 13.3822 61.7397 13.2061 62.0251C13.1455 62.1232 13.021 62.1572 12.9294 62.1006C12.6929 61.9542 10.0883 61.905 10.1769 62.0485C10.2598 62.1827 10.2387 62.185 8.38723 62.2413C7.08046 62.281 6.52887 62.3294 4.5722 62.5762C3.68001 62.6887 3.15837 62.6242 2.64844 62.3385C2.43489 62.2188 2.48091 62.1508 2.9952 61.8257C3.41002 61.5635 3.91679 61.4093 4.68172 61.3125C5.98713 61.1472 7.23264 60.9391 8.12999 60.7362C8.66675 60.6148 8.77381 60.5398 8.71756 60.3245C8.67719 60.1699 8.56687 60.0926 8.45043 60.1374C8.34134 60.1793 8.25208 60.143 8.25208 60.0567C8.25208 59.9704 8.36354 59.8989 8.49976 59.8977C8.71144 59.8959 8.71658 59.8755 8.53515 59.7581C8.40088 59.6713 8.38624 59.62 8.49532 59.6186C8.59045 59.6173 8.63113 59.5207 8.58604 59.4031C8.52913 59.2546 8.67035 59.1158 9.05046 58.9467L9.59665 58.7036L8.21378 58.6182C7.4532 58.5712 6.45008 58.5392 5.98462 58.5471C5.51917 58.555 5.13834 58.5535 5.13834 58.5438C5.13834 58.534 5.26572 58.379 5.42141 58.1993C5.57709 58.0195 5.70447 57.9156 5.70447 57.9683C5.70447 58.021 5.8479 57.9701 6.02319 57.855C6.19848 57.74 6.81406 57.5725 7.39115 57.4829C7.96823 57.3932 8.69263 57.2308 9.00093 57.1219C9.30923 57.013 9.79231 56.9216 10.0744 56.9188C10.8626 56.911 12.8481 56.3941 12.274 56.3461C12.2026 56.3402 12.0169 56.306 11.8612 56.2701C11.7055 56.2342 11.5004 56.1878 11.4053 56.1669C11.0815 56.0959 11.0608 55.9579 11.3597 55.8629C11.5238 55.8108 11.8245 55.6137 12.028 55.4248C12.2314 55.236 12.54 55.0816 12.7137 55.0816C12.8874 55.0816 13.1022 54.9939 13.191 54.8868C13.3237 54.7267 13.207 54.6754 12.5361 54.5988C12.087 54.5476 11.5286 54.4748 11.2951 54.4371C10.7395 54.3473 8.52868 54.3603 8.37683 54.4542C8.17198 54.581 6.55368 54.6408 6.55368 54.5216C6.55368 54.459 6.64921 54.3283 6.76598 54.2313C6.88274 54.1343 6.97828 53.9883 6.97828 53.9069C6.97828 53.8255 6.93637 53.8009 6.88515 53.8521C6.83393 53.9034 6.70655 53.8744 6.60208 53.7876C6.49691 53.7002 6.41214 53.6902 6.41214 53.7652C6.41214 53.8397 6.31661 53.9006 6.19984 53.9006C5.85993 53.9006 5.95317 53.7489 6.42027 53.5418C6.94556 53.309 6.87034 53.2114 6.0235 53.0267C5.25098 52.8583 5.10372 52.5943 5.65759 52.3707C6.23079 52.1394 8.92381 51.8392 10.4633 51.835C11.1849 51.8329 11.9442 51.7889 12.1507 51.737L12.5262 51.6427L12.1229 51.3124C11.9011 51.1307 11.612 50.9798 11.4803 50.977C11.1448 50.9698 11.0429 50.7444 11.2228 50.4077C11.4128 50.0523 12.644 49.413 13.1386 49.413C13.3472 49.413 13.4678 49.3519 13.4181 49.2713C13.37 49.1934 13.2138 49.1296 13.071 49.1296C12.8312 49.1296 12.5646 48.7758 12.6172 48.5273C12.6706 48.2747 10.425 48.5572 10.237 48.8267C10.0935 49.0326 6.47936 49.5705 6.12407 49.4389L5.78573 49.3136L6.11485 49.1372C6.29586 49.0402 7.47177 48.7893 8.72798 48.5796C11.0267 48.1959 11.5861 47.925 10.0799 47.925C9.61703 47.925 9.19125 47.8441 9.05283 47.7298C8.85622 47.5674 8.58401 47.5629 7.43734 47.7031C5.32888 47.961 4.10351 48.138 3.81614 48.2265C3.62576 48.285 3.5685 48.243 3.60384 48.0707C3.65535 47.8196 4.09323 47.5249 4.77971 47.2794C5.37059 47.0681 5.0033 46.8819 4.24779 47.0096C3.92023 47.0651 3.36563 47.1553 3.01533 47.2102L2.37843 47.31L2.90918 46.8008C3.2011 46.5207 3.43994 46.2687 3.43994 46.2409C3.43994 46.213 3.04499 46.1455 2.56228 46.0908C1.42097 45.9615 0.810285 45.6411 0.818191 45.1759C0.822344 44.9305 1.73797 44.6013 2.58993 44.5389C2.94067 44.5132 3.73715 44.3908 4.3599 44.267C4.98265 44.1432 5.93808 44.0132 6.48309 43.9781C7.02809 43.943 7.85606 43.8471 8.32302 43.765C11.2231 43.2551 11.8759 43.1296 12.0009 43.0579C12.0777 43.0138 11.8548 42.908 11.5055 42.8229C11.154 42.7372 10.8705 42.585 10.8705 42.482C10.8705 42.2435 12.297 41.7255 13.5916 41.4938C14.2214 41.3811 14.6874 41.2135 14.84 41.0447C14.9765 40.8936 15.4503 40.703 15.9191 40.6107C16.9826 40.4012 16.9539 40.2025 15.7983 39.7749C15.5505 39.6833 15.3765 39.5345 15.4116 39.4444C15.4914 39.2392 16.1474 38.9262 16.4976 38.9262C16.6424 38.9262 16.7214 38.8624 16.6733 38.7845C16.6252 38.7065 16.1119 38.6428 15.5327 38.6428C14.5784 38.6428 14.1951 38.4979 14.6565 38.3115C15.0687 38.1449 13.0032 38.2351 11.983 38.4282C10.7125 38.6687 10.0213 38.568 10.0213 38.1426C10.0213 37.9464 10.3909 37.6889 11.4105 37.1749C12.3709 36.6906 12.7423 36.4373 12.6135 36.354C12.369 36.1959 12.6103 36.0343 13.5596 35.7204C14.8995 35.2772 15.9624 34.5345 15.8229 34.1388C15.7275 33.8686 16.2498 33.7212 18.4073 33.4094C19.4798 33.2544 20.5538 33.0294 20.794 32.9094C21.0343 32.7894 21.5429 32.6537 21.9243 32.608C22.976 32.4817 24.9883 31.972 25.303 31.7521C25.4566 31.6449 25.775 31.5526 26.0107 31.5471C26.2463 31.5417 26.5665 31.4824 26.7222 31.4154C26.9476 31.3184 26.89 31.2893 26.4392 31.2727C25.2328 31.2282 24.5926 31.1091 24.4327 30.8994C24.3235 30.7563 24.1529 30.7122 23.9373 30.7716C23.6544 30.8494 23.6434 30.8402 23.8587 30.7051C23.9964 30.6188 24.2193 30.5663 24.3541 30.5885C24.4889 30.6107 24.6849 30.5751 24.7896 30.5094C24.9023 30.4387 25.1226 30.4663 25.3291 30.577C25.6012 30.7228 25.7373 30.7271 25.946 30.5966C26.1154 30.4907 26.2452 30.4802 26.2994 30.568C26.3465 30.6444 26.7476 30.7091 27.1906 30.7118C27.6336 30.7146 28.1553 30.808 28.3499 30.9194C28.7738 31.1621 28.916 31.1799 28.916 30.9903C28.916 30.9123 28.8167 30.8485 28.6954 30.8485C28.574 30.8485 28.5096 30.792 28.5522 30.7229C28.5949 30.6539 28.4964 30.5624 28.3334 30.5197C28.1704 30.477 28.0647 30.3582 28.0985 30.2556C28.1609 30.0663 28.7949 29.9554 30.7559 29.7907C32.5277 29.6419 33.0205 29.5618 33.0205 29.4227C33.0205 29.3495 32.9249 29.2897 32.8082 29.2897C32.6902 29.2897 32.5959 29.1637 32.5959 29.0063C32.5959 28.7984 32.6902 28.7228 32.9497 28.7228C33.3569 28.7228 33.4263 28.5046 33.0505 28.4062C32.9112 28.3697 32.1947 28.374 31.4582 28.4156C29.3131 28.5368 28.4549 28.4965 28.0062 28.2533C27.7782 28.1298 27.5509 28.054 27.501 28.0849C27.4512 28.1157 27.4367 27.9615 27.4688 27.7421C27.539 27.2633 27.3399 27.1886 25.8867 27.1486C25.017 27.1246 24.9495 27.1031 25.2517 26.9463C25.749 26.6882 27.5731 26.3179 28.6608 26.2541C29.2167 26.2216 29.7418 26.1052 29.9307 25.9727C30.3328 25.6907 30.5751 25.6872 30.8469 25.9594C30.9692 26.0818 31.31 26.1707 31.6506 26.1689C32.6996 26.1635 36.6135 25.7649 37.1449 25.6094C37.6411 25.4642 37.6562 25.4407 37.5515 24.9759C37.4855 24.6831 37.5004 24.4356 37.5892 24.3466C37.6902 24.2456 37.6858 24.1398 37.5752 24.0064C37.2371 23.5985 37.6673 23.514 39.7327 23.5827C41.3376 23.6362 41.8383 23.6069 42.1639 23.4406C42.5085 23.2647 44.0619 23.022 45.1216 22.9786C45.2773 22.9722 45.7231 22.91 46.1124 22.8403L46.82 22.7136L46.1831 22.6105C45.8328 22.5538 44.7819 22.54 43.8478 22.5797C42.9137 22.6195 41.5762 22.6435 40.8756 22.6331C40.175 22.6227 38.8057 22.7181 37.8326 22.8451C35.9073 23.0963 33.9218 23.272 33.0671 23.2668C32.769 23.2651 32.4851 23.3193 32.4362 23.3873C32.3873 23.4554 32.1485 23.5192 31.9055 23.5292C31.6625 23.5391 31.4636 23.6001 31.4636 23.6646C31.4636 23.7291 31.3203 23.7416 31.1452 23.6922C30.8959 23.622 30.8728 23.6349 31.039 23.7514C31.222 23.8797 31.2171 23.9005 31.0036 23.9024C30.8674 23.9037 30.756 23.9756 30.756 24.0625C30.756 24.1596 30.6213 24.1323 30.4071 23.9917C30.0197 23.7375 29.8498 23.6976 29.9676 23.8884C30.0102 23.9575 29.9184 24.0472 29.7636 24.0877C29.6025 24.1299 29.4821 24.0913 29.4821 23.9976C29.4821 23.9027 29.2586 23.8337 28.9514 23.8337C28.614 23.8337 28.4327 23.8958 28.4538 24.004C28.4766 24.1213 28.3241 24.1535 27.9646 24.1075C27.3754 24.0319 26.7941 23.7017 26.7908 23.4407C26.7893 23.3291 26.7395 23.343 26.6515 23.4794C26.545 23.6444 26.5138 23.6026 26.5121 23.2929C26.5093 22.7818 26.7425 22.3457 27.0186 22.3457C27.1373 22.3457 27.1949 22.2819 27.1468 22.204C27.0987 22.126 27.1746 22.0574 27.3154 22.0514C27.7818 22.0317 28.078 21.9458 28.3934 21.7389C28.6761 21.5534 29.3406 21.6248 29.3406 21.8407C29.3406 21.8797 29.2553 21.8789 29.151 21.8386C29.0467 21.7986 28.8715 21.8766 28.7618 22.012C28.5898 22.2242 28.59 22.2415 28.7633 22.1369C28.9179 22.0436 28.9413 22.0756 28.8647 22.2755C28.8051 22.431 28.8381 22.5818 28.9468 22.6509C29.2175 22.8229 29.4455 22.7906 29.1992 22.6151C29.0395 22.5012 29.1215 22.4825 29.5305 22.5395C29.8312 22.5814 30.1897 22.543 30.3329 22.4535C30.5287 22.331 30.642 22.3336 30.7989 22.464C30.966 22.6029 31.0274 22.5875 31.1159 22.3846C31.1763 22.2462 31.2155 22.0851 31.2032 22.0267C31.1908 21.9682 31.2709 21.9204 31.3812 21.9204C31.4915 21.9204 31.606 21.8475 31.6357 21.7583C31.6654 21.6692 31.8765 21.5763 32.1049 21.5519C32.3332 21.5275 32.5912 21.4101 32.6782 21.291C32.7652 21.172 32.888 21.1214 32.951 21.1786C33.0141 21.2358 33.0258 21.1711 32.9769 21.0347C32.8675 20.7294 33.1382 20.7009 33.2549 21.0054C33.3291 21.1989 33.3692 21.1964 33.6043 20.9834C33.8552 20.756 33.87 20.7577 33.872 21.0127C33.8738 21.2389 33.8964 21.2482 34.0114 21.0701C34.2159 20.7532 34.1867 20.6842 33.8079 20.589C33.5677 20.5286 33.4697 20.4117 33.4854 20.2039C33.5103 19.8729 34.0033 19.6255 34.5713 19.6589C35.1008 19.6901 35.5683 19.5077 35.5683 19.27C35.5683 19.1169 35.7089 19.072 36.099 19.1005C36.6694 19.1422 37.6291 18.9827 37.9743 18.7888C38.1458 18.6925 38.1322 18.6675 37.9036 18.6586C37.7479 18.6526 37.302 18.6177 36.9128 18.5811C35.7093 18.4682 34.1084 18.4717 33.5309 18.5886C33.1345 18.6689 33.0074 18.6554 33.0783 18.5405C33.1392 18.4419 33.1009 18.41 32.9782 18.4572C32.8617 18.5019 32.6739 18.3722 32.5245 18.1439C32.3422 17.8653 32.3182 17.7381 32.4403 17.6974C32.555 17.6591 32.5273 17.5746 32.3559 17.4399C32.1233 17.2573 32.1383 17.2461 32.5253 17.3134C32.7588 17.354 32.8703 17.3497 32.773 17.3037C32.4145 17.1345 32.6119 16.9604 33.1621 16.9604C33.5195 16.9604 33.7291 17.0257 33.7304 17.1376C33.732 17.2679 33.7648 17.2639 33.8543 17.1224C33.9307 17.0016 34.009 16.9838 34.065 17.0744C34.16 17.2283 34.3402 17.2163 34.7825 17.0267C34.9342 16.9617 35.2677 16.9042 35.5235 16.899C36.1101 16.8871 36.3006 16.5353 35.7204 16.5353C35.491 16.5353 35.2801 16.4431 35.234 16.3227C35.179 16.1793 35.2408 16.1101 35.4241 16.1101C35.5735 16.1101 35.7466 16.0304 35.8089 15.933C35.9712 15.6789 36.548 15.378 36.6965 15.4699C36.7658 15.5128 36.8625 15.4831 36.9114 15.4039C36.9603 15.3247 37.176 15.2598 37.3908 15.2598C37.6056 15.2598 38.1273 15.1563 38.5501 15.0297C39.2175 14.8299 39.2774 14.784 39.0048 14.6816C38.8321 14.6168 37.6503 14.5723 36.3786 14.5829C35.107 14.5936 33.9833 14.5506 33.8816 14.4877C33.7762 14.4225 33.6549 14.4408 33.5998 14.5302C33.4861 14.7144 29.0863 14.8541 28.977 14.6769C28.9385 14.6146 28.8082 14.6016 28.6874 14.6481C28.5387 14.7052 28.5191 14.7642 28.6268 14.8308C28.7142 14.8849 28.5922 14.9292 28.3556 14.9292C28.119 14.9292 27.9254 14.8682 27.9254 14.7937C27.9254 14.7192 27.8283 14.739 27.7097 14.8376C27.591 14.9361 27.4487 14.9715 27.3933 14.9161C27.338 14.8607 27.451 14.6947 27.6444 14.5473L27.9962 14.2792L27.6423 14.3473C27.3323 14.407 27.3235 14.3987 27.5716 14.2807C27.9798 14.0865 28.6506 14.1066 29.0438 14.3248C29.4271 14.5375 29.9069 14.4674 29.9069 14.1988C29.9069 14.075 30.1863 14.0195 30.8268 14.0158C31.404 14.0126 31.7468 14.0686 31.7468 14.1663C31.7468 14.252 31.8264 14.2175 31.9237 14.0898C32.0515 13.9221 32.4347 13.8323 33.3037 13.7666C33.9653 13.7166 34.9087 13.5857 35.4001 13.4758C35.8914 13.3658 36.4965 13.2697 36.7447 13.2623C36.9928 13.2547 37.5143 13.1616 37.9035 13.0551C38.5671 12.8737 38.4922 12.8665 36.7005 12.939C35.6496 12.9815 34.6942 13.0173 34.5775 13.0186C34.4607 13.0199 32.9958 13.1704 31.3222 13.3531C29.6486 13.5358 27.8239 13.7048 27.2674 13.7286C26.711 13.7524 26.2848 13.8197 26.3204 13.8781C26.3561 13.9366 26.1108 13.9847 25.7754 13.985C25.4399 13.985 24.5923 14.078 23.8917 14.1909C22.6903 14.3845 19.8643 14.5842 20.2481 14.4483C20.3459 14.4137 20.3899 14.327 20.3459 14.2558C20.3019 14.1845 20.4448 14.1231 20.6634 14.1193C20.8821 14.1157 21.2839 13.9915 21.5564 13.8436C21.8288 13.6957 22.1791 13.5152 22.3348 13.4426C22.8465 13.2036 31.194 11.8209 33.1621 11.6491C33.746 11.5981 35.4338 11.4301 36.9128 11.2757C38.3918 11.1213 40.344 10.9331 41.2509 10.8575C42.1578 10.7818 43.2063 10.6276 43.5808 10.5147C44.0728 10.3665 44.2889 10.3534 44.3594 10.4676C44.4488 10.6125 45.9378 10.5728 47.7401 10.3776C48.0126 10.3481 48.8724 10.2841 49.6508 10.2354C51.0476 10.148 53.1757 9.85407 54.3669 9.58397C54.7032 9.5077 55.038 9.48219 55.1109 9.52727C55.1838 9.57237 56.1699 9.46872 57.3022 9.29697C58.9777 9.04284 59.4214 9.017 59.6849 9.15826C59.95 9.30026 60.2894 9.27643 61.5527 9.02716C63.6556 8.61221 66.3997 8.07276 67.7671 7.80548C68.3899 7.68375 69.2946 7.49371 69.7777 7.38317C70.2608 7.27263 70.8658 7.18249 71.1223 7.18287C71.3787 7.18287 71.8752 7.09174 72.2255 6.97949C72.8158 6.79032 74.0245 6.58031 77.2499 6.10654C78.9069 5.86315 79.2407 5.80697 80.9298 5.48728C81.7082 5.33994 82.982 5.11415 83.7605 4.98551C84.5389 4.85686 85.3669 4.71998 85.6004 4.68132C87.253 4.40786 87.5677 4.41294 87.8963 4.71843C88.0737 4.88326 88.2188 5.09052 88.2188 5.179C88.2188 5.26749 88.2665 5.33233 88.3249 5.32311C88.3833 5.31397 88.5766 5.31397 88.7545 5.32311C89.025 5.33712 89.0548 5.38325 88.9364 5.60468C88.7631 5.92885 88.9017 6.10369 89.1611 5.88817C89.4529 5.64566 89.3865 5.86379 89.0507 6.25042C88.8746 6.45323 88.5209 6.63506 88.1954 6.69012C87.7201 6.77053 87.6659 6.81484 87.8181 6.99844C88.0465 7.27399 87.8535 7.29109 96.9231 6.1923C97.5458 6.11684 98.6604 6.02453 99.3999 5.98716C100.139 5.94978 101.477 5.85207 102.372 5.77003C103.267 5.68799 104.446 5.59561 104.991 5.56473C105.535 5.53386 106.233 5.44252 106.541 5.36177C106.849 5.28102 108.07 5.21103 109.255 5.20624C110.44 5.20146 111.493 5.16911 111.596 5.13437C111.851 5.04865 115.168 4.87468 115.957 4.90565C116.306 4.91938 116.689 5.01879 116.808 5.12666C117.075 5.36836 117.754 5.39258 120.913 5.2731C122.365 5.21815 123.699 5.09324 124.137 4.97114C124.708 4.81181 125.656 4.76819 128.17 4.78551C129.978 4.79804 132.986 4.76003 134.854 4.70123C138.64 4.58204 138.438 4.58069 142.355 4.75098C144.892 4.86122 146.355 4.8658 148.583 4.77046C148.972 4.7538 149.179 4.711 149.043 4.67535C148.907 4.63972 148.795 4.54388 148.795 4.46241C148.795 4.36469 149.192 4.34237 149.963 4.39683C150.605 4.44224 152.532 4.54401 154.244 4.623C155.957 4.702 158.154 4.83205 159.127 4.912C163.036 5.23324 164.527 5.34646 166.558 5.47623C171.635 5.80083 174.312 5.93016 177.102 5.98572C178.386 6.01132 179.979 6.0757 180.64 6.1288C181.302 6.1819 182.289 6.21963 182.834 6.21263C183.379 6.20575 184.462 6.26263 185.24 6.3393C186.019 6.41597 188.54 6.50677 190.843 6.5411C193.145 6.57543 195.311 6.66567 195.655 6.74164C195.998 6.81761 196.78 6.91431 197.392 6.95652C198.003 6.99873 198.704 7.06608 198.949 7.10617C199.785 7.24328 201.092 7.3365 203.003 7.39542C204.685 7.4473 206.32 7.57182 208.735 7.83206C209.124 7.87399 209.665 7.9261 209.938 7.94784C210.21 7.96961 210.911 8.02832 211.495 8.07836C212.078 8.12839 213.066 8.20833 213.688 8.25602C214.311 8.30368 214.852 8.36235 214.891 8.38636C214.93 8.41039 215.324 8.46854 215.767 8.51568C216.21 8.56279 216.665 8.6372 216.779 8.68101C216.893 8.72482 217.55 8.77965 218.239 8.80288C220.131 8.86664 220.128 8.86625 220.128 9.09531C220.128 9.21222 220.196 9.30787 220.278 9.30787C220.361 9.30787 220.382 9.23327 220.326 9.14209C220.256 9.02903 220.302 9.00649 220.47 9.07123C220.606 9.12345 220.858 9.16617 221.03 9.16617C221.24 9.16617 221.349 9.25829 221.363 9.44959C221.389 9.78837 221.312 9.80462 221.028 9.52045C220.732 9.22383 220.4 9.24606 220.5 9.55588C220.549 9.70848 220.534 9.74295 220.46 9.6455C220.379 9.53758 219.98 9.51731 219.208 9.5819C217.88 9.69306 216.877 9.66246 215.033 9.45449C214.293 9.3711 213.338 9.26859 212.91 9.22667C212.482 9.18477 212.057 9.12616 211.966 9.0964C211.876 9.06667 211.764 9.13906 211.719 9.25725C211.658 9.41643 211.523 9.44731 211.201 9.37632C210.694 9.26482 210.368 9.22243 209.018 9.09233C208.473 9.03981 207.989 8.97339 207.942 8.94472C207.843 8.88365 205.95 8.8736 203.356 8.92041C201.711 8.95009 200.551 8.86898 199.685 8.66372C199.197 8.54808 195.784 8.49804 195.784 8.60656C195.784 8.66236 196.214 8.75408 196.74 8.81039C197.265 8.86672 197.823 8.93794 197.978 8.96868C199.07 9.18436 201.995 9.42608 204.347 9.49507C204.892 9.51106 205.405 9.5673 205.488 9.62007C205.624 9.70782 209.958 10.0462 210.191 9.9873C210.246 9.97326 210.769 10.0064 211.353 10.0609C212.256 10.1452 214.561 10.3149 215.139 10.3396C215.348 10.3485 215.373 10.5314 215.181 10.6502C215.043 10.7354 213.976 10.7551 213.011 10.6902C212.716 10.6704 212.423 10.5702 212.36 10.4676C212.274 10.3289 212.031 10.3057 211.41 10.3771C210.95 10.4299 210.532 10.4985 210.48 10.5295C210.428 10.5605 210.289 10.4892 210.171 10.371C210.052 10.2527 209.922 10.2106 209.881 10.2773C209.801 10.4069 206.944 10.3517 206.116 10.2047C205.844 10.1563 205.364 10.1035 205.049 10.0875C204.735 10.0714 204.337 9.98282 204.165 9.89065C203.915 9.75665 203.852 9.76098 203.852 9.91228C203.852 10.0237 203.663 10.1168 203.392 10.1387C202.273 10.2291 200.706 10.2205 199.464 10.1172C198.571 10.0429 198.19 10.0522 198.328 10.1449C198.886 10.519 197.839 10.7034 196.209 10.5183C194.764 10.3542 194.506 10.3456 193.881 10.4405C193.559 10.4895 193.107 10.479 192.877 10.4173C192.271 10.2547 189.12 9.9667 187.717 9.94568C187.055 9.93577 186.1 9.88404 185.594 9.83076C185.088 9.77748 184.069 9.70115 183.329 9.66114C182.59 9.62113 180.838 9.49464 179.437 9.38005C178.036 9.26545 175.952 9.12883 174.806 9.07647C172.938 8.99112 172.713 9.00573 172.632 9.21725C172.555 9.41843 172.309 9.45236 170.965 9.44722C170.098 9.44396 169.102 9.49291 168.751 9.55613L168.115 9.6711L169.176 9.82911C169.76 9.91602 170.46 9.98539 170.733 9.98325C171.005 9.98094 172.12 10.0781 173.21 10.1988C174.3 10.3195 176.37 10.4895 177.81 10.5765C179.25 10.6635 180.57 10.7652 180.743 10.8025C180.916 10.8398 182.349 10.9324 183.927 11.0083C186.764 11.1447 188.752 11.256 190.265 11.3632C190.693 11.3935 192.161 11.4829 193.528 11.5618C194.895 11.6408 196.106 11.7337 196.218 11.7685C196.33 11.8032 196.549 11.8798 196.704 11.9387C196.86 11.9977 197.232 12.0636 197.532 12.0853C197.831 12.1069 198.15 12.2257 198.24 12.3493C198.37 12.5277 198.739 12.5815 200.031 12.6106C200.926 12.6308 201.722 12.6865 201.8 12.7344C201.877 12.7823 202.419 12.8589 203.003 12.9047C205.794 13.1233 208.584 13.3009 209.867 13.3416C210.645 13.3663 212.301 13.4979 213.547 13.634C214.792 13.7701 216.385 13.9026 217.085 13.9285C221.934 14.1075 225.807 14.333 227.842 14.5548C228.542 14.6311 229.77 14.7346 230.571 14.7848C231.371 14.8349 232.059 14.9304 232.101 14.997C232.142 15.0637 231.965 15.1234 231.707 15.1297C231.449 15.1361 231.059 15.1543 230.839 15.1703C230.619 15.1862 230.412 15.1544 230.378 15.0996C230.344 15.0448 230.081 15.065 229.793 15.1445C229.502 15.2252 228.861 15.2477 228.344 15.1955C227.834 15.1441 225.124 15.077 222.322 15.0465C219.52 15.016 216.176 14.9498 214.891 14.8995C212.602 14.8098 211.953 14.8647 213.455 15.021C213.872 15.0643 214.243 15.1307 214.281 15.1684C214.382 15.2694 213.865 15.5195 213.435 15.5771C212.935 15.6441 212.777 15.8237 213.205 15.839C213.393 15.8458 214.375 15.9108 215.387 15.9834C216.399 16.0561 218.389 16.1532 219.81 16.1992C222.145 16.2749 222.393 16.3068 222.393 16.5313C222.393 16.843 222.963 16.9167 226.396 17.0493C227.781 17.1027 228.947 17.2002 228.988 17.266C229.028 17.3318 229.341 17.3856 229.682 17.3856C230.845 17.3856 230.519 17.7769 229.09 18.0957C228.687 18.1857 228.146 18.2476 227.887 18.2332C226.163 18.1376 226.616 18.4166 228.549 18.6419C229.328 18.7326 230.411 18.8377 230.956 18.8754C231.5 18.9132 232.488 19.0076 233.149 19.0853C233.811 19.163 235.148 19.2686 236.122 19.32C237.32 19.3833 237.936 19.4734 238.032 19.5992C238.111 19.7021 238.616 19.826 239.165 19.8771C239.709 19.9279 240.219 20.0473 240.297 20.1424C240.375 20.2376 240.903 20.3585 241.472 20.4111C242.041 20.4637 242.648 20.6003 242.823 20.7148C243.023 20.846 243.635 20.946 244.478 20.9853C246.297 21.0701 247.722 21.2297 247.801 21.3577C247.884 21.4921 246.644 21.6842 246.454 21.5664C246.376 21.5181 246.312 21.539 246.312 21.6129C246.312 21.6867 246.535 21.7891 246.807 21.8402C247.345 21.9413 247.447 22.1176 247.055 22.2697C246.593 22.4492 247.24 22.7335 248.695 22.99C249.917 23.2055 250.689 23.4718 250.126 23.4836C249.597 23.4947 250.414 23.7445 251.264 23.8316C251.769 23.8833 252.256 23.9872 252.347 24.0623C252.437 24.1375 252.914 24.264 253.406 24.3434C254.774 24.564 254.759 24.7412 253.364 24.851C252.843 24.892 252.366 25.0136 252.223 25.1421C252.021 25.3224 251.775 25.3439 250.878 25.26C249.053 25.0893 248.692 25.1225 248.418 25.4861C248.284 25.6641 248.202 25.8542 248.235 25.9088C248.269 25.9633 248.726 26.0525 249.25 26.1071C249.775 26.1616 250.268 26.2563 250.346 26.3175C250.424 26.3787 250.79 26.4738 251.159 26.529C252.174 26.6802 251.966 26.8804 250.794 26.8804C250.223 26.8804 249.708 26.9282 249.649 26.9867C249.59 27.0452 248.996 27.093 248.33 27.093C247.487 27.093 247.099 27.1469 247.057 27.2701C247.015 27.3915 247.167 27.4475 247.539 27.4481C247.837 27.4483 248.304 27.5074 248.577 27.5788C248.849 27.6503 249.611 27.7492 250.27 27.7985C250.929 27.8478 251.54 27.9478 251.628 28.0208C251.715 28.0937 251.824 28.1162 251.87 28.0708C251.915 28.0254 252.1 28.0412 252.281 28.106C252.535 28.1969 252.384 28.2443 251.619 28.314C250.717 28.3962 249.687 28.603 249.143 28.8115C248.797 28.9438 249.335 29.0893 250.947 29.2998C251.745 29.4039 252.398 29.527 252.398 29.5732C252.398 29.6194 252.812 29.6309 253.318 29.5986C254.057 29.5515 254.238 29.5806 254.238 29.7471C254.238 30.004 253.79 30.424 253.519 30.4211C253.353 30.4193 253.355 30.3952 253.53 30.2815C253.711 30.1647 253.705 30.1439 253.49 30.142C253.352 30.1407 253.2 30.2388 253.154 30.3598C253.082 30.5471 252.826 30.5687 251.424 30.5056C249.668 30.4265 249.236 30.5202 249.56 30.9106C250.102 31.5645 252.312 32.2655 253.831 32.2655C254.749 32.2655 255.228 32.4374 255.228 32.7665C255.228 32.9313 255.002 32.9734 254.132 32.9707C253.528 32.9689 252.78 32.9002 252.469 32.8181C252.157 32.736 250.69 32.64 249.208 32.6046C246.588 32.5422 246.514 32.5482 246.493 32.8253C246.472 33.0979 246.645 33.2942 246.949 33.3434C247.027 33.356 247.637 33.4695 248.306 33.5956C250.493 34.0083 252.436 34.2597 254.424 34.3875C256.265 34.5058 256.894 34.6681 256.703 34.9765C256.66 35.0469 256.563 35.0668 256.489 35.0207C256.415 34.9747 256.371 35.0215 256.393 35.1247C256.414 35.2285 256.322 35.3037 256.185 35.293C256.05 35.2823 255.97 35.3231 256.007 35.3837C256.045 35.4443 255.859 35.5345 255.595 35.5841C255.024 35.6914 254.888 35.9469 255.181 36.3651C255.337 36.5879 255.353 36.7208 255.242 36.8549C255.06 37.075 255.179 37.2255 255.535 37.2255C255.678 37.2255 255.795 37.2522 255.795 37.2848C255.795 37.3174 255.837 37.4544 255.889 37.5892C255.975 37.8144 255.88 37.8267 254.721 37.7404C254.027 37.6887 253.22 37.6085 252.929 37.5622C252.506 37.4951 252.398 37.5231 252.398 37.699C252.398 37.8205 252.295 37.9775 252.17 38.0478C251.846 38.2294 252.04 39.0459 252.447 39.21C252.737 39.3274 252.738 39.3342 252.469 39.3522C252.185 39.3712 252.185 39.3712 252.469 39.493C252.745 39.6118 252.359 39.6625 250.912 39.6979C250.308 39.7127 249.85 39.9034 249.85 40.1402C249.85 40.2667 249.704 40.344 249.461 40.3452C249.247 40.3465 248.927 40.3859 248.75 40.4334C248.448 40.5144 248.444 40.5316 248.679 40.7104C248.817 40.8153 249.104 40.9031 249.317 40.9056C249.53 40.9081 250.125 41.1333 250.638 41.4061C251.156 41.6812 251.778 41.9021 252.035 41.9021C252.893 41.9021 254.231 42.0825 254.165 42.1893C254.129 42.2476 254.208 42.2865 254.34 42.2758C254.472 42.2651 254.603 42.3663 254.631 42.5006C254.696 42.8124 253.86 43.35 253.429 43.274C253.256 43.2436 253.092 43.2883 253.064 43.3733C252.997 43.5738 251.345 43.6305 250.685 43.4549C250.404 43.3804 248.955 43.3021 247.465 43.281C244.945 43.2453 244.202 43.3177 245.144 43.507C245.358 43.55 245.82 43.6501 246.17 43.7295C246.521 43.8088 247.078 43.8765 247.409 43.8799C247.74 43.8833 248.01 43.9499 248.01 44.0278C248.01 44.1057 248.11 44.1695 248.232 44.1695C248.354 44.1695 248.584 44.2396 248.744 44.3252C249.031 44.4792 249.031 44.4827 248.699 44.6482C248.119 44.9381 248.299 45.2115 249.274 45.5222C249.775 45.6815 250.214 45.9048 250.251 46.0182C250.287 46.1316 250.374 46.2613 250.442 46.3065C250.659 46.4488 250.4 46.886 250.155 46.7919C250.031 46.7443 249.969 46.7445 250.016 46.7924C250.064 46.8402 249.943 47.0401 249.746 47.2365C249.488 47.495 249.222 47.6002 248.784 47.6172C248.451 47.6301 248.204 47.6824 248.235 47.7334C248.267 47.7843 247.683 47.7948 246.938 47.7566C245.855 47.7011 245.536 47.7302 245.346 47.902C245.083 48.1405 243.693 48.2389 242.968 48.0703C242.691 48.0059 242.489 48.0258 242.428 48.1233C242.376 48.2091 242.182 48.2793 241.998 48.2793C241.572 48.2793 241.217 48.4152 241.217 48.5779C241.217 48.6475 241.309 48.7044 241.422 48.7044C241.535 48.7044 241.681 48.8011 241.747 48.9193C241.822 49.0526 242.375 49.2331 243.205 49.3947C244.84 49.7133 246.044 50.2003 245.93 50.4973C245.886 50.6114 245.76 50.6699 245.649 50.6273C245.539 50.5848 245.484 50.6076 245.527 50.678C245.57 50.7485 245.439 51.0048 245.235 51.2476C244.962 51.5727 244.789 51.6653 244.579 51.5987C244.422 51.5486 244.33 51.5659 244.375 51.6374C244.418 51.7084 244.233 51.7727 243.962 51.7804C243.691 51.7881 243.023 51.9041 242.476 52.0382L241.483 52.2819L241.799 52.6189C241.973 52.8042 242.174 52.9558 242.246 52.9558C242.318 52.9558 242.595 53.0597 242.863 53.1866C243.328 53.4079 243.339 53.4309 243.133 53.7461C242.998 53.9532 242.971 54.1073 243.06 54.1628C243.139 54.2112 243.162 54.317 243.112 54.3979C243.053 54.4928 242.977 54.4767 242.897 54.3527C242.817 54.2279 242.736 54.2112 242.667 54.305C242.609 54.3845 242.37 54.5419 242.137 54.6546L241.712 54.8597L242.16 54.9078C242.645 54.96 242.904 55.3236 242.553 55.4587C242.434 55.5043 242.301 55.5065 242.258 55.4634C242.215 55.4203 241.968 55.5043 241.709 55.65C241.45 55.7957 240.996 55.9604 240.7 56.016C240.404 56.0716 240.076 56.2029 239.972 56.3078C239.723 56.5564 239.626 56.551 238.311 56.2142C237.131 55.9119 236.798 55.9401 236.314 56.3833C236.041 56.6333 235.931 56.6456 235.191 56.5087C234.221 56.3292 232.393 56.3062 232.498 56.4748C232.538 56.5397 233.035 56.672 233.603 56.769C235.05 57.016 235.212 57.0691 234.975 57.2161C234.563 57.4709 236.407 58.0725 238.209 58.2713C238.696 58.3249 239.125 58.4188 239.163 58.4799C239.2 58.5411 239.098 58.7611 238.934 58.9689C238.66 59.3179 238.655 59.366 238.866 59.599C238.991 59.7377 239.094 59.8861 239.094 59.9288C239.094 60.1039 236.697 59.8519 235.909 59.5939C234.776 59.2229 232.482 58.9522 232.27 59.1644C232.158 59.2767 232.157 59.3731 232.267 59.5053C232.415 59.6839 232.642 59.7602 234.529 60.2667C235.118 60.4246 235.414 60.5754 235.414 60.7174C235.414 60.8969 235.247 60.9157 234.364 60.8356C233.691 60.7746 233.281 60.793 233.223 60.8869C233.173 60.9675 233.21 61.0335 233.306 61.0335C233.401 61.0335 233.446 61.0665 233.406 61.1069C233.311 61.2019 231.307 60.7807 231.107 60.6238C230.951 60.5005 228.884 60.1818 228.443 60.213C228.307 60.2226 228.195 60.3103 228.195 60.4078C228.195 60.5054 228.163 60.6711 228.122 60.7762C228.053 60.9577 229.781 61.3246 232.76 61.7607C233.207 61.8262 233.804 61.9763 234.086 62.0943C234.368 62.2124 234.798 62.3093 235.042 62.3097C235.683 62.311 236.603 62.5915 236.455 62.7405C236.386 62.8094 235.524 62.884 234.539 62.9063C233.555 62.9285 232.76 62.9575 232.773 62.9707C232.786 62.9839 233.111 63.1185 233.496 63.2698C234.165 63.5333 234.181 63.5521 233.875 63.7161C233.636 63.8446 233.379 63.8495 232.85 63.7359C231.989 63.5509 231.875 63.5484 231.875 63.7148C231.875 63.7865 232.066 63.8871 232.298 63.9383C233.072 64.1084 232.904 64.2929 231.976 64.2929C231.436 64.2929 230.89 64.3828 230.624 64.5153C230.356 64.6495 230.055 64.6983 229.866 64.6382C229.462 64.5099 222.817 64.461 222.894 64.5869C223.059 64.8536 221.202 64.8523 219.618 64.5843C216.41 64.042 213.68 63.7338 211.919 63.7149C210.946 63.7045 209.481 63.6084 208.664 63.5013C207.846 63.3942 206.39 63.2408 205.428 63.1604C204.466 63.0801 203.638 62.9898 203.588 62.9598C203.538 62.9298 203.02 62.8646 202.436 62.8148C201.853 62.7651 201.152 62.6974 200.879 62.6644C200.312 62.5958 197.73 62.4516 195.855 62.3839C194.499 62.3349 192.438 62.2046 191.043 62.0796C190.576 62.0377 188.761 61.9762 187.009 61.943C185.258 61.9098 183.188 61.8303 182.409 61.7664C181.631 61.7025 179.478 61.6566 177.625 61.6644C174.823 61.6761 174.234 61.7136 174.122 61.8873C174.008 62.0645 173.969 62.0662 173.861 61.8985C173.776 61.7667 173.594 61.7287 173.315 61.7845C173.085 61.8307 172.828 61.7987 172.742 61.7132C172.657 61.6278 172.377 61.5446 172.12 61.5281C171.863 61.5117 171.525 61.4605 171.37 61.4143C170.521 61.1629 169.638 61.0897 169.282 61.2416C168.996 61.3634 168.283 61.2195 168.381 61.0598C168.417 61.001 167.735 60.9357 166.865 60.9147C164.523 60.8583 164.28 60.8325 164.015 60.6122C163.799 60.4331 163.778 60.4414 163.82 60.6867C163.853 60.8736 163.8 60.9463 163.656 60.9121C163.539 60.8844 163.3 60.8605 163.125 60.859C162.95 60.8574 162.807 60.8072 162.807 60.7474C162.807 60.6875 162.704 60.5991 162.579 60.5509C162.413 60.4873 162.374 60.5239 162.436 60.6848C162.494 60.8375 162.466 60.8717 162.345 60.7948C162.249 60.7335 161.565 60.6633 160.825 60.6388C159.27 60.5873 159.501 60.588 152.192 60.6138C149.117 60.6246 146.207 60.5875 145.726 60.5312C145.245 60.4749 144.744 60.47 144.613 60.5202C144.372 60.6128 139.749 60.7955 138.328 60.7687C137.217 60.7476 135.957 61.4016 136.658 61.6355C136.763 61.6703 136.69 61.7706 136.481 61.881C136.287 61.9837 136.092 62.1215 136.049 62.1873C135.893 62.4251 134.691 62.5578 134.35 62.3749C134.135 62.2597 133.565 62.2183 132.669 62.2528C131.923 62.2816 129.474 62.3387 127.226 62.3798C124.978 62.421 122.985 62.4935 122.796 62.541C122.607 62.5885 121.803 62.6371 121.01 62.649C120.217 62.661 119.441 62.7424 119.285 62.83C119.007 62.9868 117.694 63.2441 117.474 63.185C117.204 63.1122 116.701 63.1305 116.242 63.2299C115.97 63.2889 115.62 63.3265 115.464 63.3134C115.308 63.3004 115.053 63.2785 114.898 63.2647C114.742 63.251 114.01 63.3146 113.27 63.4061C112.531 63.4977 111.65 63.5712 111.314 63.5696C110.977 63.5681 110.627 63.627 110.535 63.7007C110.444 63.7745 110.162 63.8792 109.909 63.9333C109.532 64.0139 109.449 63.9883 109.449 63.792C109.449 63.5795 109.332 63.5636 108.423 63.6525C107.858 63.7076 106.377 63.7674 105.132 63.7854C103.886 63.8034 102.524 63.893 102.105 63.9845C101.686 64.0761 101.312 64.151 101.274 64.151C101.236 64.151 101.284 64.2467 101.381 64.3636C101.478 64.4805 101.773 64.5761 102.035 64.5761C102.298 64.5761 102.514 64.6028 102.514 64.6354C102.514 64.668 102.552 64.7955 102.599 64.9188C102.717 65.2263 102.319 65.2112 102.004 64.8962C101.826 64.7178 101.742 64.6985 101.699 64.8263C101.667 64.9235 101.582 64.967 101.511 64.9229C101.439 64.8789 101.381 64.8945 101.381 64.9575C101.381 65.0206 101.238 65.08 101.063 65.0895C100.888 65.0991 99.9164 65.1791 98.9044 65.2673C97.8924 65.3555 95.8544 65.4532 94.3753 65.4844C92.8963 65.5157 91.527 65.5762 91.3324 65.6189C90.673 65.7637 87.0476 66.0995 85.1049 66.1957C81.505 66.374 78.7759 66.8895 78.2131 67.4975C78.0371 67.6877 77.7269 67.8412 77.5042 67.8485C75.6727 67.9081 73.1292 68.099 72.013 68.2608C71.5459 68.3285 70.7266 68.4229 70.1922 68.4707C69.6579 68.5185 68.9008 68.6184 68.5099 68.6926C68.119 68.7668 67.776 68.8276 67.7477 68.8276C67.7194 68.8276 67.6962 68.6644 67.6962 68.4649L67.6963 68.4652ZM67.6963 67.1758C67.6963 67.0207 67.6336 67.0091 67.4185 67.1244C67.2525 67.2134 67.1737 67.3594 67.2227 67.4873C67.2859 67.6522 67.3496 67.664 67.5005 67.5386C67.6082 67.4492 67.6963 67.2859 67.6963 67.1758ZM91.5447 65.068C92.0984 64.8691 92.0844 64.8662 90.9078 64.9353C88.2133 65.0935 87.3694 65.1737 87.3694 65.2714C87.3694 65.4563 90.9491 65.2819 91.5447 65.068ZM25.8023 63.3567C25.8023 63.326 25.7067 63.301 25.59 63.301C25.4732 63.301 25.3777 63.3627 25.3777 63.4382C25.3777 63.5137 25.4732 63.5388 25.59 63.4939C25.7067 63.4491 25.8023 63.3873 25.8023 63.3567ZM36.0635 62.8758C36.1129 62.7958 35.997 62.7341 35.7971 62.7341C35.6025 62.7341 35.4039 62.7979 35.3558 62.8758C35.3064 62.9559 35.4223 63.0175 35.6222 63.0175C35.8168 63.0175 36.0154 62.9538 36.0635 62.8758ZM29.3406 62.1507C29.3406 62.0045 29.1711 61.9908 28.8568 62.1116C28.5017 62.248 28.597 62.4183 28.9868 62.3436C29.1814 62.3064 29.3406 62.2196 29.3406 62.1507ZM109.425 62.1277C109.908 61.993 109.975 61.9412 109.737 61.8848C109.359 61.7951 104.856 61.9845 102.443 62.1915C101.787 62.2478 106.851 62.3852 107.892 62.3393C108.398 62.3171 109.088 62.2218 109.425 62.1277ZM114.332 61.6915C114.487 61.6546 114.201 61.6297 113.695 61.636C112.487 61.6512 112.009 61.7814 112.775 61.8866C113.086 61.9293 113.5 61.918 113.695 61.8614C113.889 61.8049 114.176 61.7284 114.332 61.6915V61.6915ZM24.0093 61.7332C24.3007 61.7246 24.2988 61.7172 23.9716 61.5863C23.5857 61.432 23.2547 61.5088 23.2547 61.7529C23.2547 61.8417 23.3552 61.8755 23.4785 61.8282C23.6017 61.7808 23.8405 61.7381 24.0093 61.7332ZM116.458 61.5736C116.496 61.5357 116.244 61.494 115.898 61.4809C115.552 61.4678 115.225 61.5284 115.172 61.6155C115.103 61.7269 115.269 61.7544 115.731 61.7083C116.093 61.6721 116.42 61.6115 116.458 61.5736V61.5736ZM227.134 59.8999C227.188 59.8121 226.962 59.7645 226.541 59.7749C225.937 59.7898 225.908 59.8038 226.285 59.8999C226.904 60.0576 227.037 60.0576 227.134 59.8999ZM8.98629 57.8191C8.88412 57.7781 8.76205 57.7832 8.71502 57.8302C8.66799 57.8773 8.75158 57.9108 8.90078 57.9047C9.06566 57.8979 9.0992 57.8643 8.98629 57.8191V57.8191ZM10.6582 57.6324C10.9426 57.5412 10.9565 57.5182 10.7289 57.5148C10.5732 57.5125 10.3185 57.5655 10.1628 57.6324C9.80213 57.7876 10.1742 57.7876 10.6582 57.6324ZM12.5573 57.6881C12.6804 57.6408 12.7812 57.4875 12.7812 57.3473C12.7812 57.1303 12.6921 57.1037 12.1797 57.1678C11.5293 57.2492 11.1049 57.4907 11.6122 57.4907C11.7789 57.4907 11.9546 57.5545 12.0027 57.6324C12.1034 57.7956 12.2416 57.8094 12.5573 57.6881V57.6881ZM242.49 55.2233C242.49 55.1454 242.379 55.0826 242.243 55.0838C242.031 55.0856 242.026 55.1059 242.207 55.2233C242.474 55.3961 242.49 55.3961 242.49 55.2233V55.2233ZM16.063 49.4579C15.9608 49.417 15.8387 49.422 15.7917 49.4691C15.7447 49.5162 15.8283 49.5497 15.9775 49.5436C16.1423 49.5367 16.1759 49.5032 16.063 49.458V49.4579ZM14.9042 49.0445C14.9042 48.8135 14.5105 48.7875 13.9934 48.9844C13.4305 49.1987 13.5641 49.3495 14.2673 49.2935C14.6945 49.2595 14.9042 49.1775 14.9042 49.0445ZM17.5331 49.1467C17.3918 48.9178 16.8856 48.8594 16.8856 49.072C16.8856 49.1914 17.031 49.2713 17.2478 49.2713C17.447 49.2713 17.5754 49.2153 17.5331 49.1467V49.1467ZM16.461 48.9879C16.619 48.8857 16.5374 48.85 16.1426 48.8484C15.8507 48.8471 15.6118 48.91 15.6118 48.9879C15.6118 49.1684 16.1821 49.1684 16.461 48.9879ZM252.398 32.4074C252.398 32.3294 252.334 32.2657 252.256 32.2657C252.178 32.2657 252.115 32.3294 252.115 32.4074C252.115 32.4853 252.178 32.5491 252.256 32.5491C252.334 32.5491 252.398 32.4853 252.398 32.4074ZM253.424 29.7627C253.327 29.7234 253.167 29.7234 253.07 29.7627C252.973 29.802 253.052 29.8342 253.247 29.8342C253.442 29.8342 253.521 29.802 253.424 29.7627ZM251.301 28.056C251.126 28.0222 250.839 28.0222 250.664 28.056C250.489 28.0897 250.632 28.1174 250.982 28.1174C251.333 28.1174 251.476 28.0897 251.301 28.056V28.056ZM244.755 26.9119C244.755 26.8513 244.23 26.726 243.587 26.6336C242.945 26.5411 242.266 26.4213 242.079 26.3673C241.868 26.3063 241.771 26.3222 241.825 26.4093C241.873 26.4864 242.472 26.6306 243.156 26.7298C243.841 26.8289 244.465 26.9303 244.543 26.955C244.621 26.9797 244.7 27.0049 244.72 27.0111C244.739 27.0172 244.755 26.9726 244.755 26.9119V26.9119ZM38.328 25.6051C38.5808 25.4964 38.5703 25.4823 38.2302 25.4734C38.0207 25.4679 37.81 25.5272 37.7619 25.6051C37.6574 25.7743 37.9348 25.7743 38.328 25.6051V25.6051ZM243.764 24.7749C243.764 24.7079 243.125 24.5804 242.344 24.4914C240.584 24.2911 240.268 24.287 240.448 24.4672C240.524 24.5428 241.285 24.6614 242.139 24.7308C242.994 24.8002 243.709 24.8659 243.729 24.8768C243.748 24.8877 243.764 24.8418 243.764 24.7749V24.7749ZM30.3875 23.0779C30.4276 23.0129 30.3677 22.9598 30.2544 22.9598C30.141 22.9598 30.0483 23.0129 30.0483 23.0779C30.0483 23.1428 30.1082 23.196 30.1815 23.196C30.2547 23.196 30.3474 23.1428 30.3875 23.0779ZM49.3234 22.8158C49.2212 22.7748 49.0992 22.7799 49.0521 22.8269C49.0051 22.874 49.0887 22.9075 49.2379 22.9014C49.4028 22.8945 49.4363 22.861 49.3234 22.8157V22.8158ZM27.3591 22.6291C27.3591 22.5512 27.2477 22.4884 27.1115 22.4896C26.8998 22.4914 26.8946 22.5117 27.0761 22.6291C27.3432 22.802 27.3591 22.802 27.3591 22.6291V22.6291ZM27.9253 22.4082C27.9253 22.3738 27.8616 22.3457 27.7837 22.3457C27.7059 22.3457 27.6422 22.4132 27.6422 22.4958C27.6422 22.5783 27.7059 22.6065 27.7837 22.5583C27.8616 22.5101 27.9253 22.4426 27.9253 22.4082V22.4082ZM35.9927 21.4215C36.1873 21.367 36.7924 21.2692 37.3373 21.2042C37.8822 21.1391 38.5509 21.0185 38.8234 20.9361C39.0958 20.8537 39.3187 20.7917 39.3187 20.7982C39.3187 20.8525 40.2882 20.5493 40.7695 20.3444C41.4996 20.0336 41.5457 19.7949 40.8756 19.7949C40.5296 19.7949 40.3802 19.7308 40.3802 19.5823C40.3802 19.3644 41.0137 19.2782 42.0652 19.3531C42.5233 19.3858 43.8302 19.1415 44.1295 18.9674C44.353 18.8373 43.6387 18.6906 42.707 18.6753C42.1009 18.6652 41.5844 18.7651 40.9464 19.0154C40.4498 19.2103 39.9123 19.3707 39.7519 19.3719C39.5196 19.3737 39.5021 19.4006 39.6658 19.5042C39.7789 19.5759 39.9222 19.603 39.9843 19.5646C40.0464 19.5261 40.0972 19.5551 40.0972 19.6287C40.0972 19.7556 39.7874 19.8452 38.7064 20.0309C38.4474 20.0754 38.2011 20.2016 38.1591 20.3113C38.0966 20.4743 38.0421 20.4777 37.8604 20.3299C37.6742 20.1785 37.6516 20.1854 37.7215 20.3724C37.7824 20.5358 37.723 20.5894 37.5003 20.5721C37.3328 20.5591 36.9844 20.6063 36.7261 20.677C36.4004 20.7661 36.1943 20.7539 36.0538 20.6371C35.9398 20.5424 35.8512 20.5299 35.8512 20.6085C35.8512 20.7649 34.7728 21.212 34.3957 21.212C34.2621 21.212 34.1528 21.2992 34.1528 21.4058C34.1528 21.55 34.3426 21.5894 34.8958 21.56C35.3045 21.5383 35.7981 21.476 35.9927 21.4215V21.4215ZM41.8149 16.2821C41.7128 16.248 41.562 16.2875 41.4797 16.3699C41.3747 16.475 41.43 16.4935 41.6654 16.4318C41.8568 16.3817 41.9209 16.3175 41.8149 16.2821ZM212.768 15.7206C212.768 15.6621 212.575 15.6008 212.338 15.5842C212.093 15.5669 211.945 15.6124 211.993 15.6905C212.092 15.8503 212.768 15.8766 212.768 15.7206ZM42.2202 14.8278L42.574 14.8169L42.2439 14.6844C41.8709 14.5347 41.2294 14.65 41.2294 14.8668C41.2294 14.9458 41.3718 14.9714 41.5479 14.9242C41.723 14.8772 42.0256 14.8338 42.2202 14.8278V14.8278ZM211.636 14.8585C211.636 14.7936 211.541 14.7404 211.424 14.7404C211.307 14.7404 211.211 14.7936 211.211 14.8585C211.211 14.9235 211.307 14.9766 211.424 14.9766C211.541 14.9766 211.636 14.9235 211.636 14.8585ZM212.229 14.8798C212.127 14.8388 212.005 14.8439 211.957 14.891C211.91 14.9381 211.994 14.9715 212.143 14.9654C212.308 14.9586 212.342 14.925 212.229 14.8798V14.8798ZM44.6528 14.5964C44.5506 14.5554 44.4286 14.5605 44.3815 14.6075C44.3345 14.6546 44.4181 14.6881 44.5673 14.682C44.7322 14.6752 44.7657 14.6416 44.6528 14.5963V14.5964ZM28.7745 14.4097C28.7745 14.3318 28.7108 14.268 28.6329 14.268C28.5551 14.268 28.4914 14.3318 28.4914 14.4097C28.4914 14.4877 28.5551 14.5514 28.6329 14.5514C28.7108 14.5514 28.7745 14.4877 28.7745 14.4097ZM32.4544 14.0381C32.4544 13.8793 32.1886 14.0185 32.1124 14.2172C32.0379 14.4117 32.0586 14.4205 32.2388 14.2707C32.3574 14.1722 32.4544 14.0675 32.4544 14.0381ZM33.8697 14.0555C33.8697 13.9385 33.8446 13.8429 33.8141 13.8429C33.7835 13.8429 33.7218 13.9385 33.677 14.0555C33.6322 14.1724 33.6572 14.268 33.7326 14.268C33.808 14.268 33.8697 14.1724 33.8697 14.0555ZM219.164 9.21124C219.062 9.1703 218.94 9.17534 218.893 9.22241C218.846 9.2695 218.929 9.303 219.078 9.29683C219.243 9.29006 219.277 9.25646 219.164 9.21123V9.21124ZM88.8495 6.34182C88.8943 6.26926 88.8729 6.17398 88.8019 6.13007C88.731 6.08615 88.6364 6.14553 88.5918 6.26199C88.5038 6.49158 88.7164 6.55745 88.8495 6.34182ZM21.6697 67.1627C21.5882 67.0652 21.5772 66.9836 21.6451 66.9812C21.713 66.9789 21.6495 66.9076 21.5039 66.8229C21.1305 66.6057 21.4613 66.4195 22.1932 66.435C22.5754 66.443 22.6674 66.4769 22.4762 66.5391C22.2066 66.6269 22.0055 66.9877 22.2285 66.9836C22.6441 66.976 22.9442 66.7908 22.8795 66.5819C22.8163 66.3778 22.8331 66.3796 23.011 66.5958C23.2528 66.8896 24.3298 66.9436 24.4229 66.6667C24.4702 66.526 24.5277 66.5269 24.7025 66.6713C24.978 66.899 25.1406 67.4521 24.9066 67.3656C24.8154 67.332 24.7614 67.2185 24.7866 67.1135C24.8187 66.98 24.7537 66.994 24.5706 67.16C24.3614 67.3495 24.0578 67.3915 23.0632 67.3686C22.2723 67.3503 21.7637 67.2752 21.6697 67.1627L21.6697 67.1627ZM19.7268 66.8503C19.5383 66.7336 19.6289 66.4187 19.8511 66.4187C20.0125 66.4187 20.1543 66.8188 20.0218 66.9008C19.9631 66.9371 19.8304 66.9144 19.7268 66.8503ZM22.7214 65.7101C22.5648 65.4591 22.5812 65.4242 22.8642 65.4051C23.0401 65.3932 23.2794 65.3731 23.3962 65.3604C23.7737 65.3192 23.8448 65.4487 23.5958 65.7242C23.2812 66.0722 22.9438 66.0668 22.7214 65.7101V65.7101ZM108.458 64.6556C108.458 64.6212 108.522 64.5537 108.6 64.5055C108.677 64.4574 108.741 64.4855 108.741 64.568C108.741 64.6506 108.677 64.7181 108.6 64.7181C108.522 64.7181 108.458 64.69 108.458 64.6556ZM110.119 64.5588C110.215 64.462 110.329 64.4184 110.372 64.462C110.416 64.5057 110.337 64.5849 110.198 64.6381C109.996 64.715 109.98 64.6988 110.119 64.5588ZM34.1528 64.1686C34.1528 64.1002 34.251 63.9626 34.3711 63.8628C34.5408 63.7218 34.6271 63.7193 34.7591 63.8514C34.8911 63.9835 34.8818 64.0511 34.7177 64.155C34.4508 64.3239 34.1528 64.3311 34.1528 64.1686V64.1686ZM193.944 62.8758C193.944 62.7979 194.036 62.7341 194.148 62.7341C194.26 62.7341 194.392 62.7979 194.44 62.8758C194.488 62.9538 194.396 63.0175 194.236 63.0175C194.076 63.0175 193.944 62.9538 193.944 62.8758ZM191.538 62.7253C191.538 62.564 191.919 62.5476 192.016 62.7047C192.054 62.7665 191.962 62.8263 191.812 62.8376C191.661 62.8489 191.538 62.7984 191.538 62.7253ZM51.1785 62.4966C51.0511 62.1643 51.2452 62.1155 51.7343 62.357C51.9895 62.4829 52.1346 62.5955 52.0568 62.6073C51.4603 62.6971 51.2449 62.6699 51.1785 62.4966V62.4966ZM173.564 62.1673C173.564 62.0893 173.592 62.0255 173.626 62.0255C173.66 62.0255 173.728 62.0893 173.776 62.1673C173.824 62.2452 173.796 62.309 173.713 62.309C173.631 62.309 173.564 62.2452 173.564 62.1673ZM171.523 62.0446C171.462 61.9458 171.45 61.8267 171.497 61.7799C171.624 61.6531 171.762 61.8396 171.693 62.0451C171.646 62.1891 171.612 62.189 171.523 62.0444V62.0446ZM172.042 62.0734C171.752 61.9563 171.841 61.7625 172.148 61.8428C172.304 61.8835 172.431 61.9732 172.431 62.0421C172.431 62.1772 172.321 62.1861 172.042 62.0734ZM239.896 61.3642C239.733 61.2012 239.793 61.0336 240.014 61.0336C240.13 61.0336 240.226 61.1292 240.226 61.2461C240.226 61.4674 240.059 61.5273 239.896 61.3642ZM64.2468 60.4961C64.2087 60.4344 64.3019 60.3744 64.4538 60.363C64.6058 60.3515 64.6932 60.402 64.648 60.4753C64.5477 60.6377 64.3409 60.6485 64.2468 60.4961ZM65.5226 60.2527C65.5671 60.1366 65.7082 60.0366 65.8361 60.0306C65.964 60.0246 66.3552 59.991 66.7055 59.9559C67.1649 59.9099 67.2832 59.932 67.1301 60.0355C66.955 60.1538 66.9529 60.1793 67.1183 60.1811C67.2286 60.1824 67.2791 60.223 67.2306 60.2716C67.1821 60.3201 66.7598 60.3833 66.2921 60.4119C65.5836 60.4552 65.4552 60.4286 65.5226 60.2527V60.2527ZM7.76277 59.9096C7.65809 59.7401 7.92434 59.572 8.11286 59.6887C8.27115 59.7866 8.16723 60.0415 7.96902 60.0415C7.90037 60.0415 7.80755 59.9822 7.76277 59.9096ZM9.10129 56.2236C9.10129 56.1503 9.16425 56.0513 9.24121 56.0037C9.32144 55.9541 9.34516 56.011 9.29683 56.1371C9.20274 56.3826 9.10129 56.4275 9.10129 56.2236V56.2236ZM10.1392 56.1507C10.1392 56.0372 10.1933 55.9778 10.2595 56.0187C10.3256 56.0597 10.3431 56.1525 10.2983 56.2251C10.1838 56.4105 10.1392 56.3896 10.1392 56.1507ZM256.785 37.6508C256.669 37.5752 256.637 37.5134 256.715 37.5134C256.792 37.5134 256.952 37.5752 257.068 37.6508C257.185 37.7263 257.217 37.7882 257.139 37.7882C257.061 37.7882 256.902 37.7263 256.785 37.6508ZM24.2454 27.1338C24.2454 27.0724 24.3728 27.0222 24.5285 27.0222C24.6842 27.0222 24.8115 27.0821 24.8115 27.1551C24.8115 27.2282 24.6842 27.2784 24.5285 27.2667C24.3728 27.2549 24.2454 27.1952 24.2454 27.1338ZM30.1724 25.0526L29.8405 24.7835L30.6874 24.6709C31.1533 24.609 31.8687 24.5547 32.2773 24.5503C32.6859 24.5459 33.0202 24.4989 33.0203 24.4459C33.0205 24.3355 33.8635 24.5553 33.9951 24.6999C34.0429 24.7525 33.8855 24.7582 33.6454 24.7126C33.3766 24.6615 33.0502 24.7136 32.7962 24.8479C32.5693 24.968 32.0492 25.0724 31.6405 25.08C31.2319 25.0875 30.8975 25.145 30.8975 25.2077C30.8975 25.4108 30.5127 25.3285 30.1724 25.0526V25.0526ZM28.3882 25.0943C28.4352 25.0473 28.5573 25.0422 28.6595 25.0832C28.7724 25.1284 28.7388 25.162 28.574 25.1688C28.4248 25.1749 28.3412 25.1415 28.3882 25.0944V25.0943ZM25.8134 23.1369C25.8073 22.9875 25.8407 22.9038 25.8878 22.9509C25.9348 22.998 25.9398 23.1202 25.899 23.2225C25.8538 23.3356 25.8202 23.302 25.8134 23.1369H25.8134ZM29.6788 21.9458C29.7184 21.8818 29.6204 21.7177 29.4611 21.5811C29.1761 21.3368 29.1855 21.3261 30.0472 20.9181C31.085 20.4266 31.1806 20.4156 31.1806 20.7868C31.1806 20.9615 31.0855 21.0711 30.9329 21.0724C30.7321 21.0742 30.7231 21.0987 30.8854 21.2015C30.9956 21.2713 31.2025 21.3059 31.3454 21.2783C31.4883 21.2508 31.6052 21.2932 31.6052 21.3727C31.6052 21.4521 31.3982 21.5058 31.1452 21.4919C30.8922 21.478 30.5578 21.4741 30.4021 21.4833C30.1663 21.497 30.1545 21.5227 30.3314 21.6371C30.5128 21.7546 30.5076 21.7748 30.296 21.7767C30.1597 21.778 30.0483 21.8426 30.0483 21.9206C30.0483 21.9985 29.949 22.0623 29.8276 22.0623C29.7063 22.0623 29.6393 22.0099 29.6788 21.9459V21.9458ZM31.4886 20.8023C31.3463 20.7142 31.3518 20.6551 31.5151 20.5194C31.7441 20.3291 31.9266 20.4954 31.769 20.7507C31.7128 20.8417 31.5891 20.8645 31.4886 20.8023V20.8023ZM26.5807 14.8349C26.5326 14.7569 26.5888 14.6931 26.7055 14.6931C26.8223 14.6931 26.9572 14.7569 27.0053 14.8349C27.0534 14.9128 26.9973 14.9766 26.8805 14.9766C26.7637 14.9766 26.6288 14.9128 26.5807 14.8349ZM29.4795 14.2004C29.6833 13.9545 29.7652 13.9289 29.7652 14.1111C29.7652 14.1807 29.6607 14.2778 29.5329 14.3269C29.3386 14.4016 29.3299 14.3808 29.4795 14.2004ZM229.509 11.9134C229.675 11.7473 230.581 11.6171 230.764 11.7332C230.869 11.7999 230.892 11.8618 230.814 11.8708C230.052 11.9582 229.445 11.9781 229.509 11.9134V11.9134ZM228.65 11.7386C228.532 11.6639 228.62 11.6227 228.898 11.6227C229.134 11.6227 229.328 11.6758 229.328 11.7408C229.328 11.8916 228.889 11.8902 228.65 11.7385V11.7386ZM225.011 11.5577C224.405 11.4219 222.934 11.3245 220.186 11.2382C219.245 11.2086 218.339 11.1114 218.172 11.0223C217.991 10.9252 217.357 10.8759 216.593 10.8993C215.891 10.9209 215.316 10.924 215.316 10.9062C215.316 10.8569 216.139 10.4416 216.237 10.4416C216.285 10.4416 216.284 10.5054 216.236 10.5833C216.185 10.666 216.329 10.7251 216.581 10.7251C216.82 10.7251 217.014 10.6613 217.014 10.5833C217.014 10.5054 217.082 10.4416 217.164 10.4416C217.247 10.4416 217.266 10.5213 217.208 10.6188C217.129 10.7497 217.155 10.7585 217.306 10.6524C217.418 10.5735 217.637 10.5162 217.793 10.5251C217.949 10.5341 218.414 10.5508 218.827 10.5624C219.241 10.5739 219.549 10.6312 219.513 10.6896C219.477 10.7481 219.839 10.7866 220.318 10.7752C220.798 10.7636 221.301 10.8138 221.437 10.8864C221.603 10.9746 221.685 10.9669 221.685 10.8634C221.685 10.7781 221.762 10.756 221.856 10.8142C221.95 10.8725 222.571 10.9375 223.236 10.9588C223.901 10.98 224.445 11.005 224.445 11.0142C224.445 11.0235 224.763 11.0517 225.153 11.0769C225.542 11.1022 225.876 11.137 225.896 11.1542C225.929 11.1837 226.075 11.2266 226.32 11.2792C226.433 11.3034 225.769 11.715 225.648 11.6958C225.609 11.6895 225.322 11.6274 225.011 11.5576L225.011 11.5577ZM219.279 10.8492C219.279 10.781 219.155 10.7252 219.004 10.7252C218.853 10.7252 218.695 10.781 218.653 10.8492C218.611 10.9174 218.734 10.9731 218.928 10.9731C219.121 10.9731 219.279 10.9174 219.279 10.8492ZM226.85 10.4394C226.801 10.3602 226.701 10.3321 226.629 10.3769C226.556 10.4218 226.497 10.3947 226.497 10.3167C226.497 10.0424 226.725 10.038 226.895 10.3092C226.989 10.4601 227.037 10.5835 227.002 10.5835C226.967 10.5835 226.898 10.5187 226.85 10.4395V10.4394ZM223.82 9.88669C223.671 9.73729 223.519 9.64464 223.483 9.68078C223.447 9.71694 223.107 9.76787 222.728 9.794C222.071 9.83927 221.257 9.54732 221.464 9.34063C221.629 9.17517 222.606 9.2139 222.82 9.39434C223.038 9.5791 223.437 9.58523 223.615 9.40651C223.765 9.25613 224.487 9.28911 224.587 9.45092C224.723 9.67117 224.521 10.1582 224.294 10.1582C224.182 10.1582 223.969 10.036 223.82 9.8866V9.88669ZM225.281 9.99469C225.22 9.89703 225.242 9.86939 225.333 9.92613C225.418 9.97844 225.527 9.95639 225.576 9.87718C225.708 9.66352 225.884 9.70273 225.884 9.94572C225.884 10.1954 225.427 10.2324 225.281 9.99469V9.99469ZM59.8087 8.93899C59.8557 8.89189 59.9778 8.88684 60.08 8.92782C60.1929 8.97305 60.1593 9.00663 59.9945 9.01344C59.8453 9.01957 59.7617 8.9861 59.8087 8.939V8.93899ZM88.3602 4.91489C88.3602 4.83695 88.3883 4.77318 88.4226 4.77318C88.4569 4.77318 88.5244 4.83695 88.5725 4.91489C88.6206 4.99283 88.5925 5.0566 88.5101 5.0566C88.4276 5.0566 88.3602 4.99283 88.3602 4.91489ZM91.6605 4.92923C91.432 4.76115 91.4867 4.51963 91.7382 4.58549C91.8987 4.62752 92.0016 4.56971 92.0165 4.42926C92.0294 4.30664 92.0507 4.11067 92.0637 3.99375C92.0766 3.87684 92.204 3.77322 92.3467 3.76347C92.4894 3.75369 92.654 3.7326 92.7123 3.7165C92.7707 3.70038 93.0096 3.63581 93.2431 3.57295C93.7624 3.4332 94.0445 3.22444 93.9409 3.05656C93.8982 2.98746 93.9891 2.93091 94.1429 2.93091C94.2967 2.93091 94.4549 3.01062 94.4943 3.10805C94.5442 3.23113 94.6018 3.23878 94.683 3.13315C94.8908 2.86294 95.3242 2.7786 95.5527 2.96392C95.7362 3.11265 95.7535 3.10894 95.6531 2.94225C95.5611 2.7894 95.5914 2.76384 95.7791 2.83596C95.915 2.88819 96.1122 2.93091 96.2173 2.93091C96.3225 2.93091 96.4469 3.0519 96.4938 3.19979C96.5486 3.37262 96.6699 3.44484 96.8335 3.402C97.1948 3.30741 97.1574 2.95701 96.7932 3.02412C96.5055 3.07713 96.5052 3.0752 96.7814 2.94377C96.9371 2.86971 97.2801 2.80463 97.5436 2.79915C97.807 2.79364 98.4121 2.72665 98.8881 2.65019C100.122 2.45207 103.223 2.10488 104.637 2.00671C105.298 1.96076 106.126 1.89788 106.477 1.86698C107.215 1.80188 108.671 1.69825 110.581 1.57504C111.321 1.52732 112.34 1.45316 112.846 1.41025C114.062 1.3071 115.976 1.2994 116.242 1.39664C116.359 1.43926 116.725 1.52308 117.056 1.58294C117.387 1.64279 117.658 1.73868 117.658 1.79604C117.658 1.85338 117.5 2.05797 117.308 2.25065C117.023 2.53588 116.825 2.59841 116.246 2.58705C115.822 2.57866 115.553 2.63128 115.581 2.71661C115.607 2.79552 116.119 2.86535 116.719 2.87176C117.66 2.88179 118.287 3.06515 118.073 3.26773C117.977 3.35838 116.101 3.44794 116.101 3.36186C116.101 3.31971 115.671 3.30518 115.146 3.32956C114.62 3.35394 113.825 3.31598 113.378 3.24503C112.932 3.17415 112.536 3.14642 112.499 3.18341C112.462 3.22037 112.159 3.26407 111.825 3.28052C111.491 3.29697 111.042 3.35969 110.827 3.41992C110.594 3.48506 110.363 3.46892 110.256 3.38008C110.157 3.29794 109.46 3.21598 108.708 3.19796C107.776 3.17568 107.368 3.11652 107.43 3.01264C107.481 2.92876 107.413 2.94791 107.281 3.05523C107.116 3.18946 106.861 3.22159 106.465 3.15817C106.087 3.09764 105.92 3.11579 105.979 3.21104C106.079 3.3734 106.061 3.37651 104.778 3.41102C104.272 3.42462 103.715 3.48591 103.54 3.5472C103.365 3.60848 103.221 3.6065 103.221 3.5428C103.221 3.47909 103.062 3.42697 102.867 3.42697C102.673 3.42697 102.514 3.47479 102.514 3.53325C102.514 3.59171 102.414 3.63954 102.293 3.63954C102.172 3.63954 102.106 3.58568 102.146 3.51982C102.244 3.36068 100.79 3.5944 100.685 3.75471C100.492 4.0482 97.8429 4.34561 97.8429 4.07382C97.8429 3.99087 97.7755 3.92296 97.6931 3.92296C97.6106 3.92296 97.5798 3.98234 97.6246 4.0549C97.7526 4.26232 97.427 4.39002 97.2164 4.21499C97.0751 4.09757 97.0087 4.10475 96.9556 4.24315C96.9098 4.36265 96.6769 4.41723 96.3022 4.39625C95.982 4.37833 95.7199 4.42322 95.7199 4.49602C95.7199 4.73037 94.9928 4.57647 94.8516 4.31224C94.7765 4.17172 94.6535 4.09482 94.5783 4.14136C94.5031 4.1879 94.474 4.27867 94.5138 4.34305C94.5535 4.40744 94.4929 4.49591 94.3791 4.53964C94.2653 4.58339 94.1339 4.55718 94.0871 4.48139C94.0352 4.39739 93.8539 4.42625 93.6226 4.55533C93.1872 4.79823 91.8331 5.05631 91.6605 4.92929L91.6605 4.92923ZM89.634 4.28555C89.634 4.03663 89.7189 3.99999 89.8402 4.19654C89.885 4.2691 89.8569 4.36853 89.7778 4.41747C89.6987 4.46643 89.634 4.4072 89.634 4.28555V4.28555ZM90.1674 4.04076C90.2496 3.9584 90.4004 3.9189 90.5025 3.95298C90.6085 3.98836 90.5444 4.0526 90.353 4.10271C90.1176 4.16435 90.0623 4.1459 90.1674 4.04076ZM138.923 3.68118C138.748 3.6474 138.605 3.57108 138.605 3.5116C138.605 3.33817 139.22 3.43245 139.281 3.6152C139.311 3.7065 139.315 3.7725 139.289 3.76188C139.263 3.75123 139.098 3.71496 138.923 3.68118H138.923ZM135.986 3.35604C136.375 3.18864 136.599 3.18864 136.34 3.35604C136.223 3.43161 136.032 3.48993 135.916 3.48563C135.776 3.4805 135.8 3.43636 135.986 3.35604V3.35604ZM136.844 3.36923C136.8 3.29856 136.892 3.27412 137.048 3.31491C137.378 3.40145 137.42 3.49774 137.127 3.49774C137.015 3.49774 136.887 3.43991 136.844 3.36923V3.36923ZM118.623 3.04853C118.4 2.82433 118.502 2.80878 120.251 2.79823C121.277 2.79197 122.258 2.7595 122.431 2.72592C122.605 2.69234 122.78 2.7184 122.82 2.78378C122.861 2.84918 123.089 2.88918 123.327 2.87266C123.971 2.82803 123.974 3.03435 123.33 3.09583C123.026 3.12489 122.807 3.0996 122.844 3.03978C122.96 2.85154 122.742 2.92138 122.52 3.14345C122.28 3.38454 121.682 3.42794 121.55 3.21393C121.491 3.11958 121.369 3.12177 121.184 3.22045C120.871 3.38836 120.576 3.27426 120.72 3.04087C120.783 2.93881 120.748 2.9291 120.616 3.012C120.507 3.08072 120.067 3.17084 119.639 3.21226C119.026 3.27152 118.81 3.23668 118.623 3.04851V3.04853ZM129.971 3.21429C129.971 3.13636 129.999 3.07259 130.034 3.07259C130.068 3.07259 130.135 3.13636 130.183 3.21429C130.232 3.29224 130.203 3.35601 130.121 3.35601C130.039 3.35601 129.971 3.29224 129.971 3.21429ZM124.31 2.93087C124.182 2.84833 124.165 2.79262 124.266 2.79132C124.359 2.79004 124.474 2.85292 124.522 2.93087C124.631 3.10682 124.582 3.10682 124.31 2.93087ZM179.591 2.91154C179.664 2.7929 179.125 2.65334 179.015 2.7627C178.863 2.91506 178.234 2.94384 178.234 2.79843C178.234 2.70848 177.831 2.68681 177.137 2.73942C176.286 2.80391 175.929 2.77068 175.545 2.59118C175.273 2.46395 175.157 2.38909 175.288 2.42482C175.419 2.46055 175.547 2.43434 175.571 2.36666C175.596 2.29896 175.711 2.22283 175.828 2.19749C175.945 2.17218 176.087 2.08767 176.144 2.00972C176.202 1.93177 176.249 2.00767 176.25 2.17846C176.253 2.47194 176.274 2.47778 176.642 2.28533C176.991 2.1027 177.051 2.10721 177.227 2.32916C177.413 2.56448 177.419 2.56445 177.338 2.32916C177.272 2.13777 177.33 2.08116 177.595 2.08116C177.783 2.08116 178.002 2.19276 178.081 2.32916C178.161 2.46679 178.227 2.49832 178.23 2.40002C178.234 2.21444 178.659 2.14432 178.659 2.32916C178.659 2.38761 179.14 2.43176 179.729 2.42726C180.317 2.42274 180.83 2.47057 180.869 2.53354C180.908 2.5965 181.076 2.64801 181.243 2.64801C181.485 2.64801 181.511 2.68344 181.369 2.82515C181.192 3.00251 179.483 3.08608 179.591 2.91212V2.91154ZM181.914 2.90728C181.914 2.84232 181.962 2.78488 182.02 2.77962C182.079 2.77435 182.33 2.74336 182.579 2.71074C183.139 2.63739 183.338 2.8805 182.8 2.97983C182.267 3.07803 181.914 3.04911 181.914 2.90728V2.90728ZM171.724 2.43489C171.724 2.35695 171.485 2.29318 171.193 2.29318C170.901 2.29318 170.615 2.35695 170.558 2.43489C170.489 2.52937 170.453 2.52937 170.452 2.43489C170.448 2.25735 169.601 2.21535 169.601 2.39275C169.601 2.4641 169.543 2.48667 169.472 2.44288C169.337 2.35947 168.092 2.22555 166.77 2.15221C166.342 2.12847 165.991 2.09473 165.991 2.07721C165.991 1.98223 164.129 1.98076 164.01 2.07567C163.797 2.24507 162.382 2.36325 162.382 2.2116C162.382 2.13956 162.287 2.08062 162.17 2.08062C162.053 2.08062 161.958 2.14215 161.958 2.21738C161.958 2.30276 160.961 2.32893 159.304 2.28707C157.844 2.25019 156.497 2.22068 156.309 2.2215C156.121 2.22278 155.755 2.16419 155.495 2.09236C155.211 2.01382 155.023 2.01333 155.023 2.09107C155.023 2.21986 154.528 2.199 154.393 2.06455C154.355 2.02577 153.711 2.01671 152.962 2.04442C152.06 2.07783 151.534 2.03878 151.401 1.92862C151.245 1.79917 151.201 1.80543 151.199 1.95691C151.197 2.0798 151.159 2.09691 151.093 2.00337C151.03 1.91452 150.225 1.84829 149.078 1.8377C148.027 1.82804 144.843 1.78355 142.001 1.73898C139.16 1.69442 135.514 1.64945 133.899 1.63908C132.283 1.62881 130.962 1.58031 130.962 1.53154C130.961 1.48274 130.611 1.44283 130.183 1.44283C129.755 1.44283 129.405 1.49066 129.405 1.54912C129.405 1.60758 129.338 1.65541 129.255 1.65541C129.173 1.65541 129.145 1.59163 129.193 1.51369C129.241 1.43575 129.181 1.37198 129.059 1.37198C128.938 1.37205 128.839 1.30827 128.839 1.23034C128.839 1.15239 128.771 1.08862 128.689 1.08862C128.607 1.08862 128.578 1.15239 128.627 1.23034C128.678 1.31404 128.522 1.37117 128.246 1.36988C127.891 1.36808 127.829 1.33431 127.99 1.23034C128.146 1.12888 128.153 1.09239 128.015 1.09079C127.871 1.08899 127.877 1.03975 128.04 0.876049C128.157 0.759137 128.384 0.663477 128.546 0.663477C128.707 0.663477 128.839 0.595406 128.839 0.512208C128.839 0.422479 128.961 0.399835 129.14 0.45655C129.342 0.520872 129.409 0.500816 129.344 0.395245C129.29 0.308938 129.284 0.238335 129.33 0.238335C129.376 0.238335 129.463 0.369489 129.522 0.529794L129.629 0.821265L130.003 0.527299C130.259 0.325808 130.407 0.283455 130.474 0.392687C130.544 0.505664 130.607 0.496091 130.691 0.359763C130.788 0.203506 131.759 0.168473 135.875 0.172772C138.661 0.175775 142.086 0.219011 143.488 0.269093C144.889 0.319166 147.213 0.397111 148.654 0.442309C153.854 0.605471 155.193 0.664771 155.31 0.736878C155.57 0.897997 156.711 1.04092 156.883 0.934056C156.99 0.868205 157.114 0.891717 157.177 0.989819C157.259 1.11642 157.322 1.10553 157.426 0.946903C157.503 0.829989 157.567 0.798102 157.568 0.876049C157.57 0.96549 158.445 1.01144 159.941 1.00064C162.305 0.983542 166.345 1.2123 166.345 1.36331C166.346 1.40709 166.839 1.43573 167.442 1.42698C168.476 1.41196 170.857 1.6059 171.28 1.73951C171.435 1.7888 171.438 1.84178 171.295 2.01469C171.15 2.18895 171.154 2.21723 171.314 2.16656C171.423 2.13232 171.689 2.06521 171.906 2.01744C172.15 1.96392 172.27 1.86419 172.219 1.7576C172.174 1.66246 172.212 1.68444 172.303 1.80642C172.436 1.98582 172.618 2.00782 173.253 1.92146C173.7 1.86073 174.146 1.87202 174.287 1.94764C174.424 2.02079 174.715 2.0893 174.934 2.09992C175.301 2.11768 175.306 2.1243 174.991 2.18364C174.727 2.2335 174.695 2.27673 174.85 2.37474C175.069 2.51342 174.885 2.53079 172.891 2.5597C172.196 2.56973 171.724 2.5193 171.724 2.4349L171.724 2.43489ZM130.589 1.16029C130.544 1.04381 130.451 0.983813 130.381 1.02694C130.181 1.1506 130.233 1.37203 130.462 1.37203C130.588 1.37203 130.638 1.28891 130.589 1.16029V1.16029ZM122.334 1.64472C122.48 1.3722 122.471 1.34125 122.271 1.41822C122.071 1.495 122.062 1.46397 122.206 1.19462L122.373 0.881865L122.514 1.19782C122.675 1.5603 122.968 1.61301 123.087 1.30118C123.132 1.18426 123.118 1.08861 123.055 1.08861C122.993 1.08861 122.942 0.992174 122.942 0.874294C122.942 0.700053 123.069 0.676962 123.626 0.750837C124.093 0.812902 124.31 0.791009 124.31 0.681741C124.31 0.592878 124.534 0.521761 124.813 0.521761C125.144 0.521761 125.284 0.57544 125.221 0.677613C125.153 0.788411 125.211 0.787472 125.422 0.674354C125.668 0.542136 125.705 0.551725 125.636 0.731069C125.59 0.849778 125.496 0.946911 125.427 0.946911C125.357 0.946911 125.3 1.01068 125.3 1.08862C125.3 1.38402 125.556 1.21329 125.725 0.80519C125.922 0.329249 125.927 0.326633 126.282 0.516755C126.461 0.612665 126.516 0.762416 126.467 1.01863C126.429 1.21948 126.453 1.36524 126.521 1.3425C126.589 1.31978 126.677 1.3635 126.716 1.43968C126.758 1.5216 126.421 1.588 125.892 1.60222C125.075 1.6242 124.985 1.59709 124.843 1.28659C124.691 0.951787 124.168 0.80497 124.168 1.09698C124.168 1.17954 124.231 1.2081 124.308 1.16048C124.387 1.11161 124.413 1.16588 124.367 1.28488C124.32 1.40816 124.193 1.46013 124.063 1.40987C123.917 1.35398 123.874 1.38045 123.938 1.48553C124.052 1.66999 123.582 1.80619 123.036 1.74687C122.841 1.72575 122.566 1.76512 122.424 1.8344C122.192 1.94726 122.183 1.92757 122.334 1.64472V1.64472ZM126.206 1.11223C126.246 1.04728 126.189 0.994143 126.079 0.994143C125.969 0.994143 125.912 1.04728 125.952 1.11223C125.992 1.17718 126.049 1.23033 126.079 1.23033C126.109 1.23033 126.166 1.17718 126.206 1.11223ZM120.428 1.67157C120.385 1.60249 120.477 1.51275 120.632 1.47213C120.82 1.42293 120.885 1.3229 120.828 1.1726C120.78 1.04846 120.801 0.946899 120.874 0.946899C121.068 0.946899 121.037 1.40982 120.829 1.61836C120.617 1.82987 120.532 1.84118 120.428 1.67157ZM121.295 1.27757C121.335 1.17364 121.386 1.08861 121.408 1.08861C121.431 1.08861 121.481 1.17364 121.521 1.27757C121.561 1.38149 121.51 1.46652 121.408 1.46652C121.306 1.46652 121.256 1.38149 121.295 1.27757ZM121.841 0.880549C121.992 0.766117 122.256 0.67046 122.426 0.667978C122.764 0.662972 122.979 0.877966 122.767 1.00885C122.695 1.05369 122.611 1.01712 122.581 0.92746C122.541 0.805032 122.452 0.804796 122.225 0.926179C121.79 1.15932 121.516 1.12647 121.841 0.880153V0.880549ZM119.961 0.861271C120.008 0.814181 120.13 0.809144 120.232 0.850104C120.345 0.895338 120.311 0.928921 120.146 0.935713C119.997 0.941848 119.914 0.908376 119.961 0.861286V0.861271ZM127.423 0.805171C127.242 0.687779 127.247 0.667476 127.459 0.66562C127.595 0.664336 127.707 0.727222 127.707 0.805171C127.707 0.97801 127.691 0.97801 127.423 0.805171ZM126.663 0.589329C126.596 0.413217 126.632 0.401086 126.861 0.523453C127.189 0.699262 127.22 0.805171 126.943 0.805171C126.835 0.805171 126.709 0.708035 126.663 0.589329V0.589329Z"
        fill="#f78406" fill-opacity="0.4" />
</svg>