<svg width="54" height="54" viewBox="0 0 54 54" fill="none" xmlns="http://www.w3.org/2000/svg">
<path d="M15.6512 31.2104L21.9744 19.5L32.8504 21.811L35.4979 31.6715C35.9683 33.4235 36.6141 35.1237 37.4256 36.7462L42.0001 45.8927H33.6415C33.1154 45.8927 32.5907 45.9458 32.0753 46.0511L26.131 47.2656C24.7751 47.5426 23.3649 47.3315 22.1495 46.6695L16.1532 43.4033C15.7497 43.1835 15.3218 43.0119 14.8782 42.8919L7 40.7614L9.06967 39.1644C9.6846 38.6899 10.2453 38.149 10.7416 37.5515L14.0921 33.5182C14.6868 32.8023 15.2091 32.0293 15.6512 31.2104Z" fill="white" fill-opacity="0.4"/>
<path fill-rule="evenodd" clip-rule="evenodd" d="M23.3582 13.5405H32.0512C32.7907 13.5405 33.5151 13.7501 34.1403 14.1451L36.3745 15.5563C36.7238 15.7769 37.056 16.0236 37.3681 16.2942L41.3252 19.7241C42.127 20.4191 42.2285 21.6265 41.554 22.4456L40.028 24.2985L34.7473 29.7614C34.4997 30.0175 34.3819 30.3721 34.4269 30.7254L36.7958 49.3139C36.8632 49.8429 36.7718 50.3801 36.5333 50.857C35.7166 52.4901 33.4622 52.6845 32.379 51.2145C32.1355 50.8839 31.9709 50.502 31.8978 50.0979L28.7919 32.9188C28.729 32.571 28.4262 32.3181 28.0728 32.3181C27.7409 32.3181 27.4507 32.5417 27.3661 32.8626L22.8204 50.1087C22.8175 50.1197 22.8133 50.1303 22.8078 50.1404L22.4428 50.8095C21.3621 52.7908 18.3996 52.3578 17.9313 50.15C17.9278 50.1337 17.9276 50.1168 17.9307 50.1004L21.5222 30.808C21.5965 30.4091 21.4594 30.0001 21.1598 29.7265L17.1429 26.0589L14.1128 22.4779C13.4112 21.6488 13.5195 20.4069 14.3538 19.7117L18.7084 16.0833L20.9821 14.3449C21.6644 13.8232 22.4994 13.5405 23.3582 13.5405ZM34.1592 25.8633V17.6481L38.4624 21.0544L34.1592 25.8633ZM21.6406 26.2545V18.0394L17.3374 21.4456L21.6406 26.2545Z" fill="white"/>
<circle cx="27.9" cy="7.08559" r="5.08559" fill="white"/>
</svg>
