<svg width="54" height="54" viewBox="0 0 54 54" fill="none" xmlns="http://www.w3.org/2000/svg">
<g clip-path="url(#clip0)">
<path d="M20.574 10.9102C20.2814 10.9136 19.9951 10.9949 19.745 11.1459C19.495 11.2967 19.2904 11.5117 19.1526 11.7681L18.0341 13.7781L16.0518 16.725L11.0196 18.238C10.7574 18.3174 10.5196 18.4611 10.3281 18.6559L5.53817 23.502C5.39475 23.6472 5.28015 23.818 5.20034 24.0053L2.75917 29.7472C2.65444 29.9942 2.613 30.2632 2.6386 30.5299C2.66417 30.7968 2.75598 31.0531 2.90576 31.276L6.16916 36.1378C6.28638 36.3187 6.43866 36.4744 6.61707 36.5962C6.79551 36.718 6.99652 36.803 7.20843 36.847C7.42034 36.8909 7.63889 36.8922 7.8514 36.8514C8.06388 36.8106 8.26609 36.728 8.44617 36.6087C8.62626 36.4894 8.78068 36.3359 8.90043 36.1567C9.02015 35.9778 9.10283 35.7769 9.1436 35.5656C9.1844 35.3543 9.18248 35.1374 9.13798 34.9271C9.09348 34.7165 9.00729 34.5171 8.88441 34.3401L8.17055 33.2734L6.4337 30.4436L8.21517 27.0915L12.0618 30.8867L12.4219 48.0366H12.4315L12.4283 48.0586C12.409 48.2708 12.4319 48.4842 12.4958 48.6877C12.5597 48.8908 12.6633 49.0794 12.8006 49.243C12.9379 49.4065 13.1063 49.5415 13.2961 49.6401C13.4859 49.7389 13.6935 49.7995 13.907 49.8187C14.1204 49.8378 14.3356 49.8152 14.5402 49.7515C14.7447 49.6881 14.9347 49.5851 15.0993 49.4489C15.2638 49.3123 15.3997 49.1453 15.4991 48.9567C15.5986 48.768 15.6597 48.5618 15.6789 48.3499L15.7012 48.0934L18.3591 30.8329L32.6366 22.0903L32.6078 22.0491L32.6268 22.0365C32.934 21.8565 33.1732 21.5817 33.3079 21.2539C33.4428 20.9262 33.4659 20.5637 33.3739 20.2216C33.2816 19.8796 33.0793 19.577 32.7977 19.36C32.5161 19.143 32.1707 19.0235 31.8142 19.0199C31.5019 19.0176 31.1957 19.1044 30.9315 19.2699L30.5554 19.4978L17.7695 25.0973L13.9612 21.2071L17.9066 19.5548L18.0468 19.5137C18.4543 19.391 18.7974 19.115 19.0029 18.7445L22.0081 13.3318C22.1498 13.0841 22.2233 12.8037 22.2211 12.5189C22.219 12.234 22.1413 11.9548 21.9959 11.7093C21.8504 11.4637 21.6425 11.2606 21.3928 11.1203C21.1432 10.9801 20.8608 10.9076 20.574 10.9102ZM5.07923 10.9293C3.99736 10.9293 2.9598 11.3561 2.19477 12.116C1.42978 12.8758 1 13.9063 1 14.9809C1 16.0555 1.42978 17.086 2.19477 17.8459C2.9598 18.6057 3.99736 19.0325 5.07923 19.0325C6.16113 19.0325 7.19869 18.6057 7.96372 17.8459C8.72872 17.086 9.15849 16.0555 9.15849 14.9809C9.15849 13.9063 8.72872 12.8758 7.96372 12.116C7.19869 11.3561 6.16113 10.9293 5.07923 10.9293Z" fill="white"/>
<path d="M51.4456 24.0289L47.6899 26.0439L41.2937 18.9851L39.627 16.1075L42.6897 17.4111L41.9869 15.6665L45.0494 16.9701L51.4456 24.0289Z" fill="white"/>
<path d="M24.2046 9.20922L25.1977 6.15381L35.8791 9.99148L33.5179 10.4344L35.0953 11.8344L32.2005 11.4722L33.5332 13.2162L24.2046 9.20922Z" fill="white"/>
<path d="M39.9519 8.93497L40.6284 5.81102C40.6601 5.66488 40.5837 5.51679 40.4467 5.45818C40.2677 5.38159 40.0633 5.48764 40.022 5.67864L39.3455 8.80258C39.3138 8.94873 39.3902 9.09681 39.5272 9.1554C39.7062 9.23201 39.9106 9.12597 39.9519 8.93497Z" fill="white"/>
<path d="M41.8361 11.1211L45.7738 7.43432C45.8817 7.3333 45.8034 7.15423 45.6549 7.1629C45.62 7.16495 45.5866 7.17829 45.5602 7.20092L41.4545 10.7043C41.3624 10.7829 41.3312 10.9105 41.3765 11.0219C41.4514 11.2059 41.6905 11.2575 41.8361 11.1211Z" fill="white"/>
<path d="M47.847 11.2436L44.7274 12.7602C44.6651 12.7905 44.5931 12.7918 44.5299 12.7639C44.3377 12.6791 44.3327 12.3985 44.5218 12.3065L47.6412 10.7899C47.7035 10.7595 47.7754 10.7582 47.839 10.7861C48.0312 10.871 48.0362 11.1515 47.847 11.2436Z" fill="white"/>
<path fill-rule="evenodd" clip-rule="evenodd" d="M51.4456 24.0289L47.6899 26.0439L41.2937 18.9851L39.627 16.1075L42.6897 17.4111L41.9869 15.6665L45.0494 16.9701L51.4456 24.0289Z" stroke="white" stroke-width="0.603336"/>
<path fill-rule="evenodd" clip-rule="evenodd" d="M24.2046 9.20922L25.1977 6.15381L35.8791 9.99148L33.5179 10.4344L35.0953 11.8344L32.2005 11.4722L33.5332 13.2162L24.2046 9.20922Z" stroke="white" stroke-width="0.603336"/>
<path fill-rule="evenodd" clip-rule="evenodd" d="M39.9519 8.93497L40.6284 5.81102C40.6601 5.66488 40.5837 5.51679 40.4467 5.45818C40.2677 5.38159 40.0633 5.48764 40.022 5.67864L39.3455 8.80258C39.3138 8.94873 39.3902 9.09681 39.5272 9.1554C39.7062 9.23201 39.9106 9.12597 39.9519 8.93497Z" stroke="white" stroke-width="0.603336"/>
<path fill-rule="evenodd" clip-rule="evenodd" d="M41.8361 11.1211L45.7738 7.43432C45.8817 7.3333 45.8034 7.15423 45.6549 7.1629C45.62 7.16495 45.5866 7.17829 45.5602 7.20092L41.4545 10.7043C41.3624 10.7829 41.3312 10.9105 41.3765 11.0219C41.4514 11.2059 41.6905 11.2575 41.8361 11.1211Z" stroke="white" stroke-width="0.603336"/>
<path fill-rule="evenodd" clip-rule="evenodd" d="M47.847 11.2436L44.7274 12.7602C44.6651 12.7905 44.5931 12.7918 44.5299 12.7639C44.3377 12.6791 44.3327 12.3985 44.5218 12.3065L47.6412 10.7899C47.7035 10.7595 47.7754 10.7582 47.839 10.7861C48.0312 10.871 48.0362 11.1515 47.847 11.2436Z" stroke="white" stroke-width="0.603336"/>
</g>
<defs>
<clipPath id="clip0">
<rect width="51.022" height="44.8244" fill="white" transform="translate(1 5)"/>
</clipPath>
</defs>
</svg>
