<svg width="54" height="54" viewBox="0 0 54 54" fill="none" xmlns="http://www.w3.org/2000/svg">
<g clip-path="url(#clip0)">
<path d="M48.2377 1.15244C48.1227 1.17478 48.0144 1.22247 47.9201 1.29135C47.8255 1.36033 47.7474 1.44907 47.6909 1.55148L43.1774 7.38614C42.6262 8.09932 42.2333 8.92303 42.0219 9.79986L40.192 17.3943L31.9664 22.3214L31.8963 22.3541C31.8152 22.3882 31.7349 22.4251 31.6565 22.4644L20.0517 27.8861C19.9181 27.9404 19.7876 28.0019 19.6606 28.0703L19.5961 28.0987L19.5911 28.1061C18.8546 28.516 18.2663 29.1477 17.9102 29.9111C17.5541 30.6745 17.4484 31.5307 17.6081 32.3576L19.0595 41.201L15.3494 48.006L14.7706 48.8631C14.6479 49.037 14.5611 49.2334 14.5155 49.4415C14.4697 49.6492 14.466 49.864 14.5044 50.0733C14.543 50.2826 14.6229 50.4821 14.7395 50.66C14.8561 50.8381 15.0071 50.991 15.1837 51.1101C15.3602 51.2288 15.5587 51.3113 15.7677 51.3527C15.9766 51.3941 16.1917 51.3934 16.4004 51.3507C16.609 51.3077 16.8071 51.224 16.9829 51.1039C17.1587 50.9834 17.3088 50.8294 17.4243 50.6506L22.4898 43.1496C22.6761 42.874 22.7718 42.5474 22.7636 42.215L23.3995 35.1295L35.072 29.6789C35.7107 29.4054 36.2672 28.9703 36.6869 28.4167L43.908 19.4688C44.0695 19.2517 44.1973 19.01 44.234 18.7373L45.5461 8.70756L49.0462 2.39529C49.1079 2.30736 49.151 2.20798 49.1732 2.1031C49.1956 1.99815 49.1965 1.88986 49.1761 1.7846C49.1356 1.57643 49.0139 1.3929 48.838 1.27433C48.662 1.15576 48.4462 1.11192 48.2377 1.15244ZM29.143 16.2366C29.0066 16.2368 28.8687 16.2625 28.7354 16.319L18.7482 20.5576C17.4135 21.125 16.7907 22.667 17.3565 24.0004C17.9223 25.3339 19.4639 25.9542 20.7986 25.3869L30.7888 21.1476C31.3237 20.9215 31.5712 20.3075 31.3435 19.7735L30.1113 16.8757C29.9419 16.4761 29.5523 16.2361 29.143 16.2366ZM11.7282 27.7986C10.6862 28.0011 9.76724 28.6088 9.1735 29.488C8.57979 30.3672 8.35988 31.4459 8.5622 32.4867C8.76453 33.5276 9.3725 34.4454 10.2523 35.0382C11.1322 35.6309 12.2118 35.8499 13.2538 35.6474C13.7698 35.5471 14.261 35.3464 14.6993 35.0564C15.1376 34.7667 15.5145 34.3934 15.8085 33.9581C16.1025 33.5226 16.3078 33.0339 16.4127 32.5192C16.5176 32.0048 16.52 31.4748 16.4198 30.9594C16.3196 30.444 16.1188 29.9534 15.8288 29.5157C15.5389 29.0779 15.1653 28.7015 14.7297 28.408C14.294 28.1145 13.8047 27.9096 13.2897 27.805C12.7747 27.7005 12.2441 27.6983 11.7282 27.7986Z" fill="white"/>
<path d="M8.64583 25.5662C9.48229 25.4037 10.0286 24.5938 9.86598 23.7573C9.70339 22.9208 8.8935 22.3746 8.05703 22.5371C7.22057 22.6997 6.67429 23.5096 6.83688 24.3461C6.99947 25.1826 7.80937 25.7288 8.64583 25.5662Z" stroke="white" stroke-width="1.11435"/>
<path d="M12.2528 19.8641C13.0892 19.7015 13.6355 18.8916 13.4729 18.0551C13.3103 17.2187 12.5004 16.6724 11.664 16.835C10.8275 16.9976 10.2812 17.8075 10.4438 18.6439C10.6064 19.4804 11.4163 20.0267 12.2528 19.8641Z" stroke="white" stroke-width="1.11435"/>
<path d="M6.50472 14.5516C7.34118 14.389 7.88746 13.5791 7.72487 12.7426C7.56228 11.9062 6.75238 11.3599 5.91592 11.5225C5.07946 11.6851 4.53317 12.495 4.69577 13.3314C4.85836 14.1679 5.66825 14.7142 6.50472 14.5516Z" stroke="white" stroke-width="1.11435"/>
</g>
<defs>
<clipPath id="clip0">
<rect width="54" height="54" fill="white"/>
</clipPath>
</defs>
</svg>
