<svg width="180" height="180" viewBox="0 0 180 180" fill="none" xmlns="http://www.w3.org/2000/svg">
<path d="M45 45C20.2378 45 0 65.2378 0 90C0 114.762 20.2378 135 45 135C59.55 135 72.4482 128.103 80.6982 117.378C77.3982 112.653 74.4773 107.845 71.7773 103.345C66.9773 113.245 56.775 120 45 120C28.3472 120 15 106.653 15 90C15 73.3472 28.3472 60 45 60C54.1667 60 60.3276 63.433 66.416 69.5215C72.5045 75.6099 77.9443 84.4775 83.5693 93.8525C89.1943 103.228 95.0045 113.11 102.979 121.084C110.953 129.058 121.667 135 135 135C159.762 135 180 114.762 180 90C180 65.2378 159.762 45 135 45C120.45 45 107.552 51.8971 99.3018 62.6221C102.602 67.3471 105.523 72.1553 108.223 76.6553C113.023 66.7553 123.225 60 135 60C151.653 60 165 73.3472 165 90C165 106.653 151.653 120 135 120C125.833 120 119.672 116.567 113.584 110.479C107.496 104.39 102.056 95.5225 96.4307 86.1475C90.8057 76.7725 84.9955 66.8901 77.0215 58.916C69.0474 50.942 58.3333 45 45 45Z" fill="#c16f17"/>
</svg>
