<svg width="10" height="12" viewBox="0 0 10 12" fill="none" xmlns="http://www.w3.org/2000/svg">
<path d="M4.53149 0.772217C2.02887 0.772217 0 2.80109 0 5.30371C0 8.28379 2.9463 9.71038 3.31541 10.0424C3.69234 10.3815 4.00378 11.1415 4.12943 11.5724C4.1904 11.7817 4.36177 11.8876 4.53149 11.8921C4.70163 11.8871 4.87259 11.7813 4.93356 11.5724C5.05921 11.1415 5.37064 10.3819 5.74758 10.0424C6.11669 9.71038 9.06299 8.28379 9.06299 5.30371C9.06299 2.80109 7.03411 0.772217 4.53149 0.772217ZM4.53149 6.53957C3.84889 6.53957 3.29563 5.98632 3.29563 5.30371C3.29563 4.6211 3.84889 4.06785 4.53149 4.06785C5.2141 4.06785 5.76736 4.6211 5.76736 5.30371C5.76736 5.98632 5.2141 6.53957 4.53149 6.53957Z" fill="#ACACAC"/>
</svg>
