<svg width="28" height="32" viewBox="0 0 28 32" fill="none" xmlns="http://www.w3.org/2000/svg">
<path d="M14 0.799805C8.17078 0.799805 2.10767 2.11348 2.10767 2.11348L2.10272 2.11842C1.52899 2.23327 1.01271 2.54318 0.641555 2.99551C0.270402 3.44784 0.0672671 4.01469 0.0666504 4.5998V12.1998C0.0666504 25.3706 12.7605 30.8757 12.7605 30.8757C13.1391 31.0882 13.5659 31.1998 14 31.1998C14.4324 31.1989 14.8574 31.0873 15.2345 30.8757H15.2394C15.2407 30.8757 27.9333 25.3706 27.9333 12.1998V4.5998C27.9336 4.01315 27.7303 3.44457 27.3581 2.99113C26.9858 2.53769 26.4678 2.22748 25.8923 2.11348C25.8923 2.11348 19.8292 0.799805 14 0.799805ZM14 7.43001C14.2549 7.43001 14.5104 7.57473 14.6086 7.86543L16.0756 12.2072L20.6574 12.2617C21.2717 12.268 21.5262 13.0497 21.0334 13.417L17.3571 16.1532L18.7228 20.5271C18.9064 21.1136 18.2397 21.5981 17.7381 21.2421L14 18.5925L10.2618 21.2421C9.76023 21.5981 9.0948 21.1136 9.2772 20.5271L10.6428 16.1532L6.96652 13.417C6.47379 13.0509 6.72823 12.2693 7.34256 12.2617L11.9243 12.2072L13.3914 7.86543C13.4896 7.57473 13.7451 7.43001 14 7.43001Z" fill="#6b3d0d"/>
</svg>
