<svg width="180" height="180" viewBox="0 0 180 180" fill="none" xmlns="http://www.w3.org/2000/svg">
<g clip-path="url(#clip0)">
<path d="M89.9999 3.33325C42.2379 3.33325 3.33325 42.2379 3.33325 89.9999C3.33325 137.762 42.2379 176.667 89.9999 176.667C137.762 176.667 176.667 137.762 176.667 89.9999C176.667 42.2379 137.762 3.33325 89.9999 3.33325ZM89.9999 20.6666C128.394 20.6666 159.333 51.6055 159.333 89.9999C159.333 128.394 128.394 159.333 89.9999 159.333C51.6055 159.333 20.6666 128.394 20.6666 89.9999C20.6666 51.6055 51.6055 20.6666 89.9999 20.6666ZM81.3332 37.9999V93.5884L118.539 130.794L130.794 118.539L98.6666 86.4114V37.9999H81.3332Z" fill="#c16f17"/>
</g>
<defs>
<clipPath id="clip0">
<rect width="180" height="180" fill="white"/>
</clipPath>
</defs>
</svg>
